<svg width="76" height="74" viewBox="0 0 76 74" fill="none" xmlns="http://www.w3.org/2000/svg">
<rect x="15.0266" y="11.4138" width="60.9051" height="58.9655" rx="5" transform="rotate(3.5126 15.0266 11.4138)" fill="#7E381E"/>
<rect x="12.5547" y="10.25" width="60.9051" height="58.9655" rx="5" transform="rotate(1.10872 12.5547 10.25)" fill="#C26645"/>
<rect x="9.08618" y="10.1661" width="60.9051" height="58.9655" rx="5" transform="rotate(-2.84173 9.08618 10.1661)" fill="#D57C5B"/>
<rect x="4.04297" y="10.1876" width="60.9051" height="58.9655" rx="5" transform="rotate(-7.25949 4.04297 10.1876)" fill="#E89577"/>
<rect x="-1" y="13.0257" width="60.9051" height="58.9655" rx="5" transform="rotate(-13.314 -1 13.0257)" fill="#F5A385"/>
<rect x="15.0266" y="11.4138" width="60.9051" height="58.9655" rx="5" transform="rotate(3.5126 15.0266 11.4138)" fill="#7E381E"/>
<rect x="12.5547" y="10.25" width="60.9051" height="58.9655" rx="5" transform="rotate(1.10872 12.5547 10.25)" fill="#C26645"/>
<rect x="9.08618" y="10.1661" width="60.9051" height="58.9655" rx="5" transform="rotate(-2.84173 9.08618 10.1661)" fill="#D57C5B"/>
<rect x="4.04297" y="10.1876" width="60.9051" height="58.9655" rx="5" transform="rotate(-7.25949 4.04297 10.1876)" fill="#E89577"/>
<rect x="-1" y="13.0257" width="60.9051" height="58.9655" rx="5" transform="rotate(-13.314 -1 13.0257)" fill="#F5A385"/>
</svg>
