<svg width="169" height="165" viewBox="0 0 169 165" fill="none" xmlns="http://www.w3.org/2000/svg">
<rect x="34.4719" y="26.4759" width="134.803" height="130.51" rx="5" transform="rotate(3.5126 34.4719 26.4759)" fill="#11125B"/>
<rect x="29.0012" y="23.9" width="134.803" height="130.51" rx="5" transform="rotate(1.10872 29.0012 23.9)" fill="#2F3193"/>
<rect x="21.3242" y="23.7142" width="134.803" height="130.51" rx="5" transform="rotate(-2.84173 21.3242 23.7142)" fill="#4A4CC4"/>
<rect x="10.1619" y="23.7618" width="134.803" height="130.51" rx="5" transform="rotate(-7.25949 10.1619 23.7618)" fill="#6365DA"/>
<rect x="-1" y="30.0435" width="134.803" height="130.51" rx="5" transform="rotate(-13.314 -1 30.0435)" fill="#8587F5"/>
<path d="M40.5969 56.4916L41.6326 56.5439L41.5802 57.5796L40.5445 57.5273L40.5969 56.4916ZM41.6326 56.5439L42.6683 56.5963L42.6159 57.632L41.5802 57.5796L41.6326 56.5439ZM42.6683 56.5963L43.704 56.6487L43.6517 57.6844L42.6159 57.632L42.6683 56.5963ZM43.704 56.6487L44.7397 56.701L44.6874 57.7368L43.6517 57.6844L43.704 56.6487ZM44.7397 56.701L45.7755 56.7534L45.7231 57.7891L44.6874 57.7368L44.7397 56.701ZM45.7755 56.7534L46.8112 56.8058L46.7588 57.8415L45.7231 57.7891L45.7755 56.7534ZM46.8112 56.8058L47.8469 56.8582L47.7945 57.8939L46.7588 57.8415L46.8112 56.8058ZM47.8469 56.8582L48.8826 56.9105L48.8302 57.9463L47.7945 57.8939L47.8469 56.8582ZM47.7945 57.8939L48.8302 57.9463L48.7779 58.982L47.7421 58.9296L47.7945 57.8939ZM48.8302 57.9463L49.8659 57.9986L49.8136 59.0343L48.7779 58.982L48.8302 57.9463ZM46.7588 57.8415L47.7945 57.8939L47.7421 58.9296L46.7064 58.8772L46.7588 57.8415ZM45.7231 57.7891L46.7588 57.8415L46.7064 58.8772L45.6707 58.8248L45.7231 57.7891ZM44.6874 57.7368L45.7231 57.7891L45.6707 58.8248L44.635 58.7725L44.6874 57.7368ZM43.6517 57.6844L44.6874 57.7368L44.635 58.7725L43.5993 58.7201L43.6517 57.6844ZM42.6159 57.632L43.6517 57.6844L43.5993 58.7201L42.5636 58.6677L42.6159 57.632ZM41.5802 57.5796L42.6159 57.632L42.5636 58.6677L41.5279 58.6154L41.5802 57.5796ZM40.5445 57.5273L41.5802 57.5796L41.5279 58.6154L40.4921 58.563L40.5445 57.5273ZM40.4921 58.563L41.5279 58.6154L41.4755 59.6511L40.4398 59.5987L40.4921 58.563ZM41.5279 58.6154L42.5636 58.6677L42.5112 59.7034L41.4755 59.6511L41.5279 58.6154ZM42.5636 58.6677L43.5993 58.7201L43.5469 59.7558L42.5112 59.7034L42.5636 58.6677ZM43.5993 58.7201L44.635 58.7725L44.5826 59.8082L43.5469 59.7558L43.5993 58.7201ZM45.6707 58.8248L46.7064 58.8772L46.6541 59.9129L45.6183 59.8606L45.6707 58.8248ZM46.7064 58.8772L47.7421 58.9296L47.6898 59.9653L46.6541 59.9129L46.7064 58.8772ZM47.7421 58.9296L48.7779 58.982L48.7255 60.0177L47.6898 59.9653L47.7421 58.9296ZM48.7779 58.982L49.8136 59.0343L49.7612 60.0701L48.7255 60.0177L48.7779 58.982ZM49.8136 59.0343L50.8493 59.0867L50.7969 60.1224L49.7612 60.0701L49.8136 59.0343ZM44.635 58.7725L45.6707 58.8248L45.6183 59.8606L44.5826 59.8082L44.635 58.7725ZM46.6541 59.9129L47.6898 59.9653L47.6374 61.001L46.6017 60.9487L46.6541 59.9129ZM47.6898 59.9653L48.7255 60.0177L48.6731 61.0534L47.6374 61.001L47.6898 59.9653ZM49.7612 60.0701L50.7969 60.1224L50.7445 61.1581L49.7088 61.1058L49.7612 60.0701ZM48.7255 60.0177L49.7612 60.0701L49.7088 61.1058L48.6731 61.0534L48.7255 60.0177ZM48.6731 61.0534L49.7088 61.1058L49.6564 62.1415L48.6207 62.0891L48.6731 61.0534ZM48.5684 63.1248L49.6041 63.1772L49.5517 64.2129L48.516 64.1605L48.5684 63.1248ZM49.6041 63.1772L50.6398 63.2296L50.5874 64.2653L49.5517 64.2129L49.6041 63.1772ZM49.5517 64.2129L50.5874 64.2653L50.535 65.301L49.4993 65.2486L49.5517 64.2129ZM49.7088 61.1058L50.7445 61.1581L50.6922 62.1939L49.6564 62.1415L49.7088 61.1058ZM47.5326 63.0725L48.5684 63.1248L48.516 64.1605L47.4803 64.1082L47.5326 63.0725ZM47.6374 61.001L48.6731 61.0534L48.6207 62.0891L47.585 62.0367L47.6374 61.001ZM46.4969 63.0201L47.5326 63.0725L47.4803 64.1082L46.4446 64.0558L46.4969 63.0201ZM47.4803 64.1082L48.516 64.1605L48.4636 65.1963L47.4279 65.1439L47.4803 64.1082ZM48.516 64.1605L49.5517 64.2129L49.4993 65.2486L48.4636 65.1963L48.516 64.1605ZM48.4636 65.1963L49.4993 65.2486L49.447 66.2843L48.4112 66.232L48.4636 65.1963ZM46.3398 66.1272L47.3755 66.1796L47.3232 67.2153L46.2874 67.1629L46.3398 66.1272ZM47.3755 66.1796L48.4112 66.232L48.3589 67.2677L47.3232 67.2153L47.3755 66.1796ZM47.4279 65.1439L48.4636 65.1963L48.4112 66.232L47.3755 66.1796L47.4279 65.1439ZM46.3922 65.0915L47.4279 65.1439L47.3755 66.1796L46.3398 66.1272L46.3922 65.0915ZM46.4446 64.0558L47.4803 64.1082L47.4279 65.1439L46.3922 65.0915L46.4446 64.0558ZM45.3041 66.0748L46.3398 66.1272L46.2874 67.1629L45.2517 67.1106L45.3041 66.0748ZM44.2684 66.0225L45.3041 66.0748L45.2517 67.1106L44.216 67.0582L44.2684 66.0225ZM43.2327 65.9701L44.2684 66.0225L44.216 67.0582L43.1803 67.0058L43.2327 65.9701ZM43.285 64.9344L44.3208 64.9868L44.2684 66.0225L43.2327 65.9701L43.285 64.9344ZM44.3208 64.9868L45.3565 65.0391L45.3041 66.0748L44.2684 66.0225L44.3208 64.9868ZM44.3731 63.951L45.4088 64.0034L45.3565 65.0391L44.3208 64.9868L44.3731 63.951ZM45.4088 64.0034L46.4446 64.0558L46.3922 65.0915L45.3565 65.0391L45.4088 64.0034ZM43.3374 63.8987L44.3731 63.951L44.3208 64.9868L43.285 64.9344L43.3374 63.8987ZM45.3565 65.0391L46.3922 65.0915L46.3398 66.1272L45.3041 66.0748L45.3565 65.0391ZM41.4755 59.6511L42.5112 59.7034L42.4588 60.7392L41.4231 60.6868L41.4755 59.6511ZM42.5112 59.7034L43.5469 59.7558L43.4945 60.7915L42.4588 60.7392L42.5112 59.7034ZM42.4588 60.7392L43.4945 60.7915L43.4422 61.8272L42.4065 61.7749L42.4588 60.7392ZM42.4065 61.7749L43.4422 61.8272L43.3898 62.863L42.3541 62.8106L42.4065 61.7749ZM42.3541 62.8106L43.3898 62.863L43.3374 63.8987L42.3017 63.8463L42.3541 62.8106ZM41.3184 62.7582L42.3541 62.8106L42.3017 63.8463L41.266 63.7939L41.3184 62.7582ZM40.2827 62.7058L41.3184 62.7582L41.266 63.7939L40.2303 63.7415L40.2827 62.7058ZM40.335 61.6701L41.3707 61.7225L41.3184 62.7582L40.2827 62.7058L40.335 61.6701ZM40.3874 60.6344L41.4231 60.6868L41.3707 61.7225L40.335 61.6701L40.3874 60.6344ZM40.4398 59.5987L41.4755 59.6511L41.4231 60.6868L40.3874 60.6344L40.4398 59.5987ZM41.3707 61.7225L42.4065 61.7749L42.3541 62.8106L41.3184 62.7582L41.3707 61.7225ZM41.266 63.7939L42.3017 63.8463L42.2493 64.882L41.2136 64.8296L41.266 63.7939ZM41.4231 60.6868L42.4588 60.7392L42.4065 61.7749L41.3707 61.7225L41.4231 60.6868ZM40.2303 63.7415L41.266 63.7939L41.2136 64.8296L40.1779 64.7773L40.2303 63.7415ZM40.1779 64.7773L41.2136 64.8296L41.1612 65.8654L40.1255 65.813L40.1779 64.7773ZM41.2136 64.8296L42.2493 64.882L42.197 65.9177L41.1612 65.8654L41.2136 64.8296ZM42.3017 63.8463L43.3374 63.8987L43.285 64.9344L42.2493 64.882L42.3017 63.8463ZM42.2493 64.882L43.285 64.9344L43.2327 65.9701L42.197 65.9177L42.2493 64.882ZM42.197 65.9177L43.2327 65.9701L43.1803 67.0058L42.1446 66.9534L42.197 65.9177ZM42.1446 66.9534L43.1803 67.0058L43.1279 68.0415L42.0922 67.9892L42.1446 66.9534ZM42.0922 67.9892L43.1279 68.0415L43.0756 69.0772L42.0398 69.0249L42.0922 67.9892ZM42.0398 69.0249L43.0756 69.0772L43.0232 70.113L41.9875 70.0606L42.0398 69.0249ZM41.9351 71.0963L42.9708 71.1487L42.9184 72.1844L41.8827 72.132L41.9351 71.0963ZM40.8994 71.0439L41.9351 71.0963L41.8827 72.132L40.847 72.0796L40.8994 71.0439ZM39.8637 70.9915L40.8994 71.0439L40.847 72.0796L39.8113 72.0273L39.8637 70.9915ZM39.916 69.9558L40.9518 70.0082L40.8994 71.0439L39.8637 70.9915L39.916 69.9558ZM39.9684 68.9201L41.0041 68.9725L40.9518 70.0082L39.916 69.9558L39.9684 68.9201ZM40.0208 67.8844L41.0565 67.9368L41.0041 68.9725L39.9684 68.9201L40.0208 67.8844ZM40.0732 66.8487L41.1089 66.9011L41.0565 67.9368L40.0208 67.8844L40.0732 66.8487ZM40.1255 65.813L41.1612 65.8654L41.1089 66.9011L40.0732 66.8487L40.1255 65.813ZM41.1612 65.8654L42.197 65.9177L42.1446 66.9534L41.1089 66.9011L41.1612 65.8654ZM41.1089 66.9011L42.1446 66.9534L42.0922 67.9892L41.0565 67.9368L41.1089 66.9011ZM41.0565 67.9368L42.0922 67.9892L42.0398 69.0249L41.0041 68.9725L41.0565 67.9368ZM41.0041 68.9725L42.0398 69.0249L41.9875 70.0606L40.9518 70.0082L41.0041 68.9725ZM40.9518 70.0082L41.9875 70.0606L41.9351 71.0963L40.8994 71.0439L40.9518 70.0082ZM41.9875 70.0606L43.0232 70.113L42.9708 71.1487L41.9351 71.0963L41.9875 70.0606ZM49.6564 62.1415L50.6922 62.1939L50.6398 63.2296L49.6041 63.1772L49.6564 62.1415ZM48.6207 62.0891L49.6564 62.1415L49.6041 63.1772L48.5684 63.1248L48.6207 62.0891ZM47.585 62.0367L48.6207 62.0891L48.5684 63.1248L47.5326 63.0725L47.585 62.0367ZM49.1851 71.4629L50.2208 71.5153L50.1684 72.551L49.1327 72.4986L49.1851 71.4629ZM49.2375 70.4272L50.2732 70.4796L50.2208 71.5153L49.1851 71.4629L49.2375 70.4272ZM49.2898 69.3915L50.3255 69.4439L50.2732 70.4796L49.2375 70.4272L49.2898 69.3915ZM48.2541 69.3391L49.2898 69.3915L49.2375 70.4272L48.2017 70.3748L48.2541 69.3391ZM47.2184 69.2867L48.2541 69.3391L48.2017 70.3748L47.166 70.3224L47.2184 69.2867ZM47.166 70.3224L48.2017 70.3748L48.1494 71.4105L47.1137 71.3582L47.166 70.3224ZM47.1137 71.3582L48.1494 71.4105L48.097 72.4462L47.0613 72.3939L47.1137 71.3582ZM48.1494 71.4105L49.1851 71.4629L49.1327 72.4986L48.097 72.4462L48.1494 71.4105ZM48.2017 70.3748L49.2375 70.4272L49.1851 71.4629L48.1494 71.4105L48.2017 70.3748ZM47.2708 68.251L48.3065 68.3034L48.2541 69.3391L47.2184 69.2867L47.2708 68.251ZM47.3232 67.2153L48.3589 67.2677L48.3065 68.3034L47.2708 68.251L47.3232 67.2153ZM46.2874 67.1629L47.3232 67.2153L47.2708 68.251L46.2351 68.1986L46.2874 67.1629ZM49.3422 68.3558L50.3779 68.4081L50.3255 69.4439L49.2898 69.3915L49.3422 68.3558ZM49.3946 67.3201L50.4303 67.3724L50.3779 68.4081L49.3422 68.3558L49.3946 67.3201ZM48.3065 68.3034L49.3422 68.3558L49.2898 69.3915L48.2541 69.3391L48.3065 68.3034ZM48.3589 67.2677L49.3946 67.3201L49.3422 68.3558L48.3065 68.3034L48.3589 67.2677ZM48.4112 66.232L49.447 66.2843L49.3946 67.3201L48.3589 67.2677L48.4112 66.232ZM57.1653 57.3294L58.201 57.3818L58.1486 58.4175L57.1129 58.3651L57.1653 57.3294ZM58.201 57.3818L59.2367 57.4341L59.1843 58.4698L58.1486 58.4175L58.201 57.3818ZM58.1486 58.4175L59.1843 58.4698L59.132 59.5056L58.0962 59.4532L58.1486 58.4175ZM59.1843 58.4698L60.22 58.5222L60.1677 59.5579L59.132 59.5056L59.1843 58.4698ZM57.1129 58.3651L58.1486 58.4175L58.0962 59.4532L57.0605 59.4008L57.1129 58.3651ZM56.0772 58.3127L57.1129 58.3651L57.0605 59.4008L56.0248 59.3484L56.0772 58.3127ZM56.0248 59.3484L57.0605 59.4008L57.0082 60.4365L55.9724 60.3841L56.0248 59.3484ZM54.9891 59.2961L56.0248 59.3484L55.9724 60.3841L54.9367 60.3318L54.9891 59.2961ZM57.0605 59.4008L58.0962 59.4532L58.0439 60.4889L57.0082 60.4365L57.0605 59.4008ZM58.0962 59.4532L59.132 59.5056L59.0796 60.5413L58.0439 60.4889L58.0962 59.4532ZM59.132 59.5056L60.1677 59.5579L60.1153 60.5936L59.0796 60.5413L59.132 59.5056ZM60.1677 59.5579L61.2034 59.6103L61.151 60.646L60.1153 60.5936L60.1677 59.5579ZM60.1153 60.5936L61.151 60.646L61.0986 61.6817L60.0629 61.6294L60.1153 60.5936ZM61.151 60.646L62.1867 60.6984L62.1344 61.7341L61.0986 61.6817L61.151 60.646ZM59.0796 60.5413L60.1153 60.5936L60.0629 61.6294L59.0272 61.577L59.0796 60.5413ZM58.0439 60.4889L59.0796 60.5413L59.0272 61.577L57.9915 61.5246L58.0439 60.4889ZM57.0082 60.4365L58.0439 60.4889L57.9915 61.5246L56.9558 61.4722L57.0082 60.4365ZM55.9724 60.3841L57.0082 60.4365L56.9558 61.4722L55.9201 61.4199L55.9724 60.3841ZM54.9367 60.3318L55.9724 60.3841L55.9201 61.4199L54.8844 61.3675L54.9367 60.3318ZM53.901 60.2794L54.9367 60.3318L54.8844 61.3675L53.8486 61.3151L53.901 60.2794ZM55.9201 61.4199L56.9558 61.4722L56.9034 62.5079L55.8677 62.4556L55.9201 61.4199ZM54.8844 61.3675L55.9201 61.4199L55.8677 62.4556L54.832 62.4032L54.8844 61.3675ZM53.8486 61.3151L54.8844 61.3675L54.832 62.4032L53.7963 62.3508L53.8486 61.3151ZM52.8129 61.2627L53.8486 61.3151L53.7963 62.3508L52.7606 62.2985L52.8129 61.2627ZM52.7606 62.2985L53.7963 62.3508L53.7439 63.3865L52.7082 63.3342L52.7606 62.2985ZM52.7082 63.3342L53.7439 63.3865L53.6915 64.4223L52.6558 64.3699L52.7082 63.3342ZM53.7439 63.3865L54.7796 63.4389L54.7272 64.4746L53.6915 64.4223L53.7439 63.3865ZM53.7963 62.3508L54.832 62.4032L54.7796 63.4389L53.7439 63.3865L53.7963 62.3508ZM54.832 62.4032L55.8677 62.4556L55.8153 63.4913L54.7796 63.4389L54.832 62.4032ZM54.7796 63.4389L55.8153 63.4913L55.7629 64.527L54.7272 64.4746L54.7796 63.4389ZM54.7272 64.4746L55.7629 64.527L55.7106 65.5627L54.6749 65.5103L54.7272 64.4746ZM53.6915 64.4223L54.7272 64.4746L54.6749 65.5103L53.6391 65.458L53.6915 64.4223ZM52.6558 64.3699L53.6915 64.4223L53.6391 65.458L52.6034 65.4056L52.6558 64.3699ZM52.6034 65.4056L53.6391 65.458L53.5868 66.4937L52.5511 66.4413L52.6034 65.4056ZM53.6391 65.458L54.6749 65.5103L54.6225 66.5461L53.5868 66.4937L53.6391 65.458ZM54.6749 65.5103L55.7106 65.5627L55.6582 66.5984L54.6225 66.5461L54.6749 65.5103ZM55.7106 65.5627L56.7463 65.6151L56.6939 66.6508L55.6582 66.5984L55.7106 65.5627ZM56.7463 65.6151L57.782 65.6675L57.7296 66.7032L56.6939 66.6508L56.7463 65.6151ZM57.782 65.6675L58.8177 65.7198L58.7653 66.7555L57.7296 66.7032L57.782 65.6675ZM58.8177 65.7198L59.8534 65.7722L59.8011 66.8079L58.7653 66.7555L58.8177 65.7198ZM59.9058 64.7365L60.9415 64.7889L60.8891 65.8246L59.8534 65.7722L59.9058 64.7365ZM60.9415 64.7889L61.9772 64.8412L61.9249 65.877L60.8891 65.8246L60.9415 64.7889ZM60.8891 65.8246L61.9249 65.877L61.8725 66.9127L60.8368 66.8603L60.8891 65.8246ZM59.8534 65.7722L60.8891 65.8246L60.8368 66.8603L59.8011 66.8079L59.8534 65.7722ZM61.9249 65.877L62.9606 65.9293L62.9082 66.965L61.8725 66.9127L61.9249 65.877ZM61.9772 64.8412L63.0129 64.8936L62.9606 65.9293L61.9249 65.877L61.9772 64.8412ZM62.0296 63.8055L63.0653 63.8579L63.0129 64.8936L61.9772 64.8412L62.0296 63.8055ZM62.082 62.7698L63.1177 62.8222L63.0653 63.8579L62.0296 63.8055L62.082 62.7698ZM62.1344 61.7341L63.1701 61.7865L63.1177 62.8222L62.082 62.7698L62.1344 61.7341ZM61.0986 61.6817L62.1344 61.7341L62.082 62.7698L61.0463 62.7174L61.0986 61.6817ZM60.0629 61.6294L61.0986 61.6817L61.0463 62.7174L60.0106 62.6651L60.0629 61.6294ZM59.0272 61.577L60.0629 61.6294L60.0106 62.6651L58.9748 62.6127L59.0272 61.577ZM61.0463 62.7174L62.082 62.7698L62.0296 63.8055L60.9939 63.7532L61.0463 62.7174ZM60.9939 63.7532L62.0296 63.8055L61.9772 64.8412L60.9415 64.7889L60.9939 63.7532ZM59.9582 63.7008L60.9939 63.7532L60.9415 64.7889L59.9058 64.7365L59.9582 63.7008ZM60.0106 62.6651L61.0463 62.7174L60.9939 63.7532L59.9582 63.7008L60.0106 62.6651ZM52.5511 66.4413L53.5868 66.4937L53.5344 67.5294L52.4987 67.477L52.5511 66.4413ZM53.5868 66.4937L54.6225 66.5461L54.5701 67.5818L53.5344 67.5294L53.5868 66.4937ZM54.6225 66.5461L55.6582 66.5984L55.6058 67.6341L54.5701 67.5818L54.6225 66.5461ZM55.6582 66.5984L56.6939 66.6508L56.6415 67.6865L55.6058 67.6341L55.6582 66.5984ZM56.6939 66.6508L57.7296 66.7032L57.6773 67.7389L56.6415 67.6865L56.6939 66.6508ZM57.7296 66.7032L58.7653 66.7555L58.713 67.7913L57.6773 67.7389L57.7296 66.7032ZM58.7653 66.7555L59.8011 66.8079L59.7487 67.8436L58.713 67.7913L58.7653 66.7555ZM59.8011 66.8079L60.8368 66.8603L60.7844 67.896L59.7487 67.8436L59.8011 66.8079ZM60.8368 66.8603L61.8725 66.9127L61.8201 67.9484L60.7844 67.896L60.8368 66.8603ZM61.8725 66.9127L62.9082 66.965L62.8558 68.0008L61.8201 67.9484L61.8725 66.9127ZM61.8201 67.9484L62.8558 68.0008L62.8035 69.0365L61.7677 68.9841L61.8201 67.9484ZM60.7844 67.896L61.8201 67.9484L61.7677 68.9841L60.732 68.9317L60.7844 67.896ZM59.7487 67.8436L60.7844 67.896L60.732 68.9317L59.6963 68.8793L59.7487 67.8436ZM58.713 67.7913L59.7487 67.8436L59.6963 68.8793L58.6606 68.827L58.713 67.7913ZM57.6773 67.7389L58.713 67.7913L58.6606 68.827L57.6249 68.7746L57.6773 67.7389ZM56.6415 67.6865L57.6773 67.7389L57.6249 68.7746L56.5892 68.7222L56.6415 67.6865ZM55.6058 67.6341L56.6415 67.6865L56.5892 68.7222L55.5535 68.6699L55.6058 67.6341ZM53.5344 67.5294L54.5701 67.5818L54.5177 68.6175L53.482 68.5651L53.5344 67.5294ZM52.4987 67.477L53.5344 67.5294L53.482 68.5651L52.4463 68.5127L52.4987 67.477ZM54.5701 67.5818L55.6058 67.6341L55.5535 68.6699L54.5177 68.6175L54.5701 67.5818ZM54.5177 68.6175L55.5535 68.6699L55.5011 69.7056L54.4654 69.6532L54.5177 68.6175ZM54.4654 69.6532L55.5011 69.7056L55.4487 70.7413L54.413 70.6889L54.4654 69.6532ZM54.413 70.6889L55.4487 70.7413L55.3963 71.777L54.3606 71.7246L54.413 70.6889ZM54.3606 71.7246L55.3963 71.777L55.344 72.8127L54.3082 72.7603L54.3606 71.7246ZM53.3249 71.6722L54.3606 71.7246L54.3082 72.7603L53.2725 72.708L53.3249 71.6722ZM52.2892 71.6199L53.3249 71.6722L53.2725 72.708L52.2368 72.6556L52.2892 71.6199ZM52.3416 70.5842L53.3773 70.6365L53.3249 71.6722L52.2892 71.6199L52.3416 70.5842ZM52.3939 69.5484L53.4297 69.6008L53.3773 70.6365L52.3416 70.5842L52.3939 69.5484ZM52.4463 68.5127L53.482 68.5651L53.4297 69.6008L52.3939 69.5484L52.4463 68.5127ZM53.482 68.5651L54.5177 68.6175L54.4654 69.6532L53.4297 69.6008L53.482 68.5651ZM53.4297 69.6008L54.4654 69.6532L54.413 70.6889L53.3773 70.6365L53.4297 69.6008ZM53.3773 70.6365L54.413 70.6889L54.3606 71.7246L53.3249 71.6722L53.3773 70.6365ZM59.6963 68.8793L60.732 68.9317L60.6797 69.9674L59.6439 69.9151L59.6963 68.8793ZM59.6439 69.9151L60.6797 69.9674L60.6273 71.0032L59.5916 70.9508L59.6439 69.9151ZM59.5916 70.9508L60.6273 71.0032L60.5749 72.0389L59.5392 71.9865L59.5916 70.9508ZM59.5392 71.9865L60.5749 72.0389L60.5225 73.0746L59.4868 73.0222L59.5392 71.9865ZM60.5749 72.0389L61.6106 72.0912L61.5582 73.127L60.5225 73.0746L60.5749 72.0389ZM61.6106 72.0912L62.6463 72.1436L62.594 73.1793L61.5582 73.127L61.6106 72.0912ZM61.663 71.0555L62.6987 71.1079L62.6463 72.1436L61.6106 72.0912L61.663 71.0555ZM61.7154 70.0198L62.7511 70.0722L62.6987 71.1079L61.663 71.0555L61.7154 70.0198ZM61.7677 68.9841L62.8035 69.0365L62.7511 70.0722L61.7154 70.0198L61.7677 68.9841ZM60.732 68.9317L61.7677 68.9841L61.7154 70.0198L60.6797 69.9674L60.732 68.9317ZM60.6797 69.9674L61.7154 70.0198L61.663 71.0555L60.6273 71.0032L60.6797 69.9674ZM60.6273 71.0032L61.663 71.0555L61.6106 72.0912L60.5749 72.0389L60.6273 71.0032ZM65.448 57.7482L66.4837 57.8006L66.4313 58.8363L65.3956 58.7839L65.448 57.7482ZM66.4837 57.8006L67.5194 57.853L67.467 58.8887L66.4313 58.8363L66.4837 57.8006ZM67.5194 57.853L68.5551 57.9053L68.5027 58.941L67.467 58.8887L67.5194 57.853ZM68.5551 57.9053L69.5908 57.9577L69.5384 58.9934L68.5027 58.941L68.5551 57.9053ZM68.5027 58.941L69.5384 58.9934L69.4861 60.0291L68.4503 59.9768L68.5027 58.941ZM68.4503 59.9768L69.4861 60.0291L69.4337 61.0648L68.398 61.0125L68.4503 59.9768ZM68.398 61.0125L69.4337 61.0648L69.3813 62.1006L68.3456 62.0482L68.398 61.0125ZM65.3956 58.7839L66.4313 58.8363L66.3789 59.872L65.3432 59.8196L65.3956 58.7839ZM65.3432 59.8196L66.3789 59.872L66.3265 60.9077L65.2908 60.8554L65.3432 59.8196ZM65.2908 60.8554L66.3265 60.9077L66.2742 61.9434L65.2385 61.8911L65.2908 60.8554ZM65.1861 62.9268L66.2218 62.9792L66.1694 64.0149L65.1337 63.9625L65.1861 62.9268ZM65.1337 63.9625L66.1694 64.0149L66.1171 65.0506L65.0813 64.9982L65.1337 63.9625ZM65.0813 64.9982L66.1171 65.0506L66.0647 66.0863L65.029 66.0339L65.0813 64.9982ZM65.029 66.0339L66.0647 66.0863L66.0123 67.122L64.9766 67.0696L65.029 66.0339ZM64.9766 67.0696L66.0123 67.122L65.9599 68.1577L64.9242 68.1054L64.9766 67.0696ZM65.9599 68.1577L66.9956 68.2101L66.9433 69.2458L65.9076 69.1934L65.9599 68.1577ZM65.9076 69.1934L66.9433 69.2458L66.8909 70.2815L65.8552 70.2292L65.9076 69.1934ZM65.8552 70.2292L66.8909 70.2815L66.8385 71.3172L65.8028 71.2649L65.8552 70.2292ZM65.8028 71.2649L66.8385 71.3172L66.7862 72.353L65.7504 72.3006L65.8028 71.2649ZM65.7504 72.3006L66.7862 72.353L66.7338 73.3887L65.6981 73.3363L65.7504 72.3006ZM65.2385 61.8911L66.2742 61.9434L66.2218 62.9792L65.1861 62.9268L65.2385 61.8911ZM64.9242 68.1054L65.9599 68.1577L65.9076 69.1934L64.8718 69.1411L64.9242 68.1054ZM64.8718 69.1411L65.9076 69.1934L65.8552 70.2292L64.8195 70.1768L64.8718 69.1411ZM64.8195 70.1768L65.8552 70.2292L65.8028 71.2649L64.7671 71.2125L64.8195 70.1768ZM64.7671 71.2125L65.8028 71.2649L65.7504 72.3006L64.7147 72.2482L64.7671 71.2125ZM64.7147 72.2482L65.7504 72.3006L65.6981 73.3363L64.6623 73.2839L64.7147 72.2482ZM66.7862 72.353L67.8219 72.4053L67.7695 73.441L66.7338 73.3887L66.7862 72.353ZM66.8385 71.3172L67.8742 71.3696L67.8219 72.4053L66.7862 72.353L66.8385 71.3172ZM66.8909 70.2815L67.9266 70.3339L67.8742 71.3696L66.8385 71.3172L66.8909 70.2815ZM66.9433 69.2458L67.979 69.2982L67.9266 70.3339L66.8909 70.2815L66.9433 69.2458ZM67.048 67.1744L68.0837 67.2268L68.0314 68.2625L66.9956 68.2101L67.048 67.1744ZM67.1004 66.1387L68.1361 66.191L68.0837 67.2268L67.048 67.1744L67.1004 66.1387ZM67.2051 64.0672L68.2409 64.1196L68.1885 65.1553L67.1528 65.103L67.2051 64.0672ZM67.2575 63.0315L68.2932 63.0839L68.2409 64.1196L67.2051 64.0672L67.2575 63.0315ZM67.3099 61.9958L68.3456 62.0482L68.2932 63.0839L67.2575 63.0315L67.3099 61.9958ZM67.1528 65.103L68.1885 65.1553L68.1361 66.191L67.1004 66.1387L67.1528 65.103ZM66.9956 68.2101L68.0314 68.2625L67.979 69.2982L66.9433 69.2458L66.9956 68.2101ZM66.0123 67.122L67.048 67.1744L66.9956 68.2101L65.9599 68.1577L66.0123 67.122ZM66.0647 66.0863L67.1004 66.1387L67.048 67.1744L66.0123 67.122L66.0647 66.0863ZM66.1171 65.0506L67.1528 65.103L67.1004 66.1387L66.0647 66.0863L66.1171 65.0506ZM66.1694 64.0149L67.2051 64.0672L67.1528 65.103L66.1171 65.0506L66.1694 64.0149ZM66.2218 62.9792L67.2575 63.0315L67.2051 64.0672L66.1694 64.0149L66.2218 62.9792ZM66.2742 61.9434L67.3099 61.9958L67.2575 63.0315L66.2218 62.9792L66.2742 61.9434ZM66.3265 60.9077L67.3623 60.9601L67.3099 61.9958L66.2742 61.9434L66.3265 60.9077ZM66.3789 59.872L67.4146 59.9244L67.3623 60.9601L66.3265 60.9077L66.3789 59.872ZM66.4313 58.8363L67.467 58.8887L67.4146 59.9244L66.3789 59.872L66.4313 58.8363ZM67.467 58.8887L68.5027 58.941L68.4503 59.9768L67.4146 59.9244L67.467 58.8887ZM67.4146 59.9244L68.4503 59.9768L68.398 61.0125L67.3623 60.9601L67.4146 59.9244ZM67.3623 60.9601L68.398 61.0125L68.3456 62.0482L67.3099 61.9958L67.3623 60.9601ZM68.3456 62.0482L69.3813 62.1006L69.3289 63.1363L68.2932 63.0839L68.3456 62.0482ZM68.2932 63.0839L69.3289 63.1363L69.2766 64.172L68.2409 64.1196L68.2932 63.0839ZM69.3289 63.1363L70.3647 63.1886L70.3123 64.2244L69.2766 64.172L69.3289 63.1363ZM69.2766 64.172L70.3123 64.2244L70.2599 65.2601L69.2242 65.2077L69.2766 64.172ZM68.2409 64.1196L69.2766 64.172L69.2242 65.2077L68.1885 65.1553L68.2409 64.1196ZM69.3813 62.1006L70.417 62.1529L70.3647 63.1886L69.3289 63.1363L69.3813 62.1006ZM69.4337 61.0648L70.4694 61.1172L70.417 62.1529L69.3813 62.1006L69.4337 61.0648ZM69.4861 60.0291L70.5218 60.0815L70.4694 61.1172L69.4337 61.0648L69.4861 60.0291ZM69.2242 65.2077L70.2599 65.2601L70.2075 66.2958L69.1718 66.2434L69.2242 65.2077ZM70.2599 65.2601L71.2956 65.3125L71.2432 66.3482L70.2075 66.2958L70.2599 65.2601ZM70.3123 64.2244L71.348 64.2767L71.2956 65.3125L70.2599 65.2601L70.3123 64.2244ZM70.3647 63.1886L71.4004 63.241L71.348 64.2767L70.3123 64.2244L70.3647 63.1886ZM70.417 62.1529L71.4527 62.2053L71.4004 63.241L70.3647 63.1886L70.417 62.1529ZM69.1718 66.2434L70.2075 66.2958L70.1552 67.3315L69.1194 67.2791L69.1718 66.2434ZM70.2075 66.2958L71.2432 66.3482L71.1909 67.3839L70.1552 67.3315L70.2075 66.2958ZM71.2432 66.3482L72.279 66.4005L72.2266 67.4363L71.1909 67.3839L71.2432 66.3482ZM71.2956 65.3125L72.3313 65.3648L72.279 66.4005L71.2432 66.3482L71.2956 65.3125ZM71.348 64.2767L72.3837 64.3291L72.3313 65.3648L71.2956 65.3125L71.348 64.2767ZM70.1028 68.3672L71.1385 68.4196L71.0861 69.4553L70.0504 69.4029L70.1028 68.3672ZM70.1552 67.3315L71.1909 67.3839L71.1385 68.4196L70.1028 68.3672L70.1552 67.3315ZM71.1909 67.3839L72.2266 67.4363L72.1742 68.472L71.1385 68.4196L71.1909 67.3839ZM71.1385 68.4196L72.1742 68.472L72.1218 69.5077L71.0861 69.4553L71.1385 68.4196ZM72.2266 67.4363L73.2623 67.4886L73.2099 68.5243L72.1742 68.472L72.2266 67.4363ZM72.279 66.4005L73.3147 66.4529L73.2623 67.4886L72.2266 67.4363L72.279 66.4005ZM72.1742 68.472L73.2099 68.5243L73.1576 69.5601L72.1218 69.5077L72.1742 68.472ZM72.1218 69.5077L73.1576 69.5601L73.1052 70.5958L72.0695 70.5434L72.1218 69.5077ZM71.0861 69.4553L72.1218 69.5077L72.0695 70.5434L71.0338 70.491L71.0861 69.4553ZM71.0338 70.491L72.0695 70.5434L72.0171 71.5791L70.9814 71.5267L71.0338 70.491ZM72.0695 70.5434L73.1052 70.5958L73.0528 71.6315L72.0171 71.5791L72.0695 70.5434ZM72.0171 71.5791L73.0528 71.6315L73.0004 72.6672L71.9647 72.6148L72.0171 71.5791ZM71.9647 72.6148L73.0004 72.6672L72.9481 73.7029L71.9123 73.6505L71.9647 72.6148ZM73.0004 72.6672L74.0361 72.7196L73.9838 73.7553L72.9481 73.7029L73.0004 72.6672ZM74.0361 72.7196L75.0719 72.7719L75.0195 73.8077L73.9838 73.7553L74.0361 72.7196ZM75.0719 72.7719L76.1076 72.8243L76.0552 73.86L75.0195 73.8077L75.0719 72.7719ZM75.1242 71.7362L76.1599 71.7886L76.1076 72.8243L75.0719 72.7719L75.1242 71.7362ZM74.1409 70.6481L75.1766 70.7005L75.1242 71.7362L74.0885 71.6839L74.1409 70.6481ZM74.1933 69.6124L75.229 69.6648L75.1766 70.7005L74.1409 70.6481L74.1933 69.6124ZM74.2456 68.5767L75.2814 68.6291L75.229 69.6648L74.1933 69.6124L74.2456 68.5767ZM74.298 67.541L75.3337 67.5934L75.2814 68.6291L74.2456 68.5767L74.298 67.541ZM74.3504 66.5053L75.3861 66.5577L75.3337 67.5934L74.298 67.541L74.3504 66.5053ZM75.2814 68.6291L76.3171 68.6815L76.2647 69.7172L75.229 69.6648L75.2814 68.6291ZM75.229 69.6648L76.2647 69.7172L76.2123 70.7529L75.1766 70.7005L75.229 69.6648ZM75.1766 70.7005L76.2123 70.7529L76.1599 71.7886L75.1242 71.7362L75.1766 70.7005ZM74.0885 71.6839L75.1242 71.7362L75.0719 72.7719L74.0361 72.7196L74.0885 71.6839ZM73.0528 71.6315L74.0885 71.6839L74.0361 72.7196L73.0004 72.6672L73.0528 71.6315ZM73.1052 70.5958L74.1409 70.6481L74.0885 71.6839L73.0528 71.6315L73.1052 70.5958ZM73.1576 69.5601L74.1933 69.6124L74.1409 70.6481L73.1052 70.5958L73.1576 69.5601ZM73.2099 68.5243L74.2456 68.5767L74.1933 69.6124L73.1576 69.5601L73.2099 68.5243ZM73.2623 67.4886L74.298 67.541L74.2456 68.5767L73.2099 68.5243L73.2623 67.4886ZM73.3147 66.4529L74.3504 66.5053L74.298 67.541L73.2623 67.4886L73.3147 66.4529ZM73.367 65.4172L74.4028 65.4696L74.3504 66.5053L73.3147 66.4529L73.367 65.4172ZM74.4028 65.4696L75.4385 65.5219L75.3861 66.5577L74.3504 66.5053L74.4028 65.4696ZM75.3337 67.5934L76.3694 67.6457L76.3171 68.6815L75.2814 68.6291L75.3337 67.5934ZM75.3861 66.5577L76.4218 66.61L76.3694 67.6457L75.3337 67.5934L75.3861 66.5577ZM75.4385 65.5219L76.4742 65.5743L76.4218 66.61L75.3861 66.5577L75.4385 65.5219ZM75.4908 64.4862L76.5266 64.5386L76.4742 65.5743L75.4385 65.5219L75.4908 64.4862ZM75.5432 63.4505L76.5789 63.5029L76.5266 64.5386L75.4908 64.4862L75.5432 63.4505ZM75.5956 62.4148L76.6313 62.4672L76.5789 63.5029L75.5432 63.4505L75.5956 62.4148ZM74.5599 62.3624L75.5956 62.4148L75.5432 63.4505L74.5075 63.3981L74.5599 62.3624ZM74.6123 61.3267L75.648 61.3791L75.5956 62.4148L74.5599 62.3624L74.6123 61.3267ZM73.5242 62.3101L74.5599 62.3624L74.5075 63.3981L73.4718 63.3458L73.5242 62.3101ZM73.4718 63.3458L74.5075 63.3981L74.4551 64.4339L73.4194 64.3815L73.4718 63.3458ZM73.4194 64.3815L74.4551 64.4339L74.4028 65.4696L73.367 65.4172L73.4194 64.3815ZM74.4551 64.4339L75.4908 64.4862L75.4385 65.5219L74.4028 65.4696L74.4551 64.4339ZM74.5075 63.3981L75.5432 63.4505L75.4908 64.4862L74.4551 64.4339L74.5075 63.3981ZM73.7337 58.1672L74.7694 58.2196L74.717 59.2553L73.6813 59.2029L73.7337 58.1672ZM74.7694 58.2196L75.8051 58.2719L75.7527 59.3077L74.717 59.2553L74.7694 58.2196ZM75.8051 58.2719L76.8408 58.3243L76.7884 59.36L75.7527 59.3077L75.8051 58.2719ZM75.7527 59.3077L76.7884 59.36L76.7361 60.3957L75.7003 60.3434L75.7527 59.3077ZM75.7003 60.3434L76.7361 60.3957L76.6837 61.4315L75.648 61.3791L75.7003 60.3434ZM75.648 61.3791L76.6837 61.4315L76.6313 62.4672L75.5956 62.4148L75.648 61.3791ZM74.6646 60.291L75.7003 60.3434L75.648 61.3791L74.6123 61.3267L74.6646 60.291ZM74.717 59.2553L75.7527 59.3077L75.7003 60.3434L74.6646 60.291L74.717 59.2553ZM73.5765 61.2743L74.6123 61.3267L74.5599 62.3624L73.5242 62.3101L73.5765 61.2743ZM73.6289 60.2386L74.6646 60.291L74.6123 61.3267L73.5765 61.2743L73.6289 60.2386ZM73.6813 59.2029L74.717 59.2553L74.6646 60.291L73.6289 60.2386L73.6813 59.2029ZM80.9826 58.5338L82.0184 58.5861L81.966 59.6219L80.9303 59.5695L80.9826 58.5338ZM82.0184 58.5861L83.0541 58.6385L83.0017 59.6742L81.966 59.6219L82.0184 58.5861ZM83.0541 58.6385L84.0898 58.6909L84.0374 59.7266L83.0017 59.6742L83.0541 58.6385ZM84.0898 58.6909L85.1255 58.7433L85.0731 59.779L84.0374 59.7266L84.0898 58.6909ZM85.1255 58.7433L86.1612 58.7956L86.1088 59.8313L85.0731 59.779L85.1255 58.7433ZM86.1612 58.7956L87.1969 58.848L87.1446 59.8837L86.1088 59.8313L86.1612 58.7956ZM86.1088 59.8313L87.1446 59.8837L87.0922 60.9194L86.0565 60.8671L86.1088 59.8313ZM87.1446 59.8837L88.1803 59.9361L88.1279 60.9718L87.0922 60.9194L87.1446 59.8837ZM85.0731 59.779L86.1088 59.8313L86.0565 60.8671L85.0208 60.8147L85.0731 59.779ZM84.0374 59.7266L85.0731 59.779L85.0208 60.8147L83.985 60.7623L84.0374 59.7266ZM83.0017 59.6742L84.0374 59.7266L83.985 60.7623L82.9493 60.7099L83.0017 59.6742ZM81.966 59.6219L83.0017 59.6742L82.9493 60.7099L81.9136 60.6576L81.966 59.6219ZM80.9303 59.5695L81.966 59.6219L81.9136 60.6576L80.8779 60.6052L80.9303 59.5695ZM79.8422 60.5528L80.8779 60.6052L80.8255 61.6409L79.7898 61.5885L79.8422 60.5528ZM79.8946 59.5171L80.9303 59.5695L80.8779 60.6052L79.8422 60.5528L79.8946 59.5171ZM78.8065 60.5004L79.8422 60.5528L79.7898 61.5885L78.7541 61.5362L78.8065 60.5004ZM80.8779 60.6052L81.9136 60.6576L81.8612 61.6933L80.8255 61.6409L80.8779 60.6052ZM81.9136 60.6576L82.9493 60.7099L82.897 61.7457L81.8612 61.6933L81.9136 60.6576ZM82.9493 60.7099L83.985 60.7623L83.9327 61.798L82.897 61.7457L82.9493 60.7099ZM83.985 60.7623L85.0208 60.8147L84.9684 61.8504L83.9327 61.798L83.985 60.7623ZM85.0208 60.8147L86.0565 60.8671L86.0041 61.9028L84.9684 61.8504L85.0208 60.8147ZM86.0565 60.8671L87.0922 60.9194L87.0398 61.9551L86.0041 61.9028L86.0565 60.8671ZM87.0922 60.9194L88.1279 60.9718L88.0755 62.0075L87.0398 61.9551L87.0922 60.9194ZM88.1279 60.9718L89.1636 61.0242L89.1112 62.0599L88.0755 62.0075L88.1279 60.9718ZM88.0755 62.0075L89.1112 62.0599L89.0589 63.0956L88.0231 63.0432L88.0755 62.0075ZM87.0398 61.9551L88.0755 62.0075L88.0231 63.0432L86.9874 62.9909L87.0398 61.9551ZM86.0041 61.9028L87.0398 61.9551L86.9874 62.9909L85.9517 62.9385L86.0041 61.9028ZM84.9684 61.8504L86.0041 61.9028L85.9517 62.9385L84.916 62.8861L84.9684 61.8504ZM85.9517 62.9385L86.9874 62.9909L86.9351 64.0266L85.8993 63.9742L85.9517 62.9385ZM85.8993 63.9742L86.9351 64.0266L86.8827 65.0623L85.847 65.0099L85.8993 63.9742ZM85.847 65.0099L86.8827 65.0623L86.8303 66.098L85.7946 66.0456L85.847 65.0099ZM85.7946 66.0456L86.8303 66.098L86.7779 67.1337L85.7422 67.0813L85.7946 66.0456ZM85.7422 67.0813L86.7779 67.1337L86.7256 68.1694L85.6899 68.1171L85.7422 67.0813ZM86.8303 66.098L87.866 66.1504L87.8137 67.1861L86.7779 67.1337L86.8303 66.098ZM87.866 66.1504L88.9017 66.2028L88.8494 67.2385L87.8137 67.1861L87.866 66.1504ZM87.9184 65.1147L88.9541 65.167L88.9017 66.2028L87.866 66.1504L87.9184 65.1147ZM87.9708 64.0789L89.0065 64.1313L88.9541 65.167L87.9184 65.1147L87.9708 64.0789ZM88.0231 63.0432L89.0589 63.0956L89.0065 64.1313L87.9708 64.0789L88.0231 63.0432ZM86.9874 62.9909L88.0231 63.0432L87.9708 64.0789L86.9351 64.0266L86.9874 62.9909ZM86.9351 64.0266L87.9708 64.0789L87.9184 65.1147L86.8827 65.0623L86.9351 64.0266ZM86.8827 65.0623L87.9184 65.1147L87.866 66.1504L86.8303 66.098L86.8827 65.0623ZM86.7779 67.1337L87.8137 67.1861L87.7613 68.2218L86.7256 68.1694L86.7779 67.1337ZM86.7256 68.1694L87.7613 68.2218L87.7089 69.2575L86.6732 69.2051L86.7256 68.1694ZM87.7613 68.2218L88.797 68.2742L88.7446 69.3099L87.7089 69.2575L87.7613 68.2218ZM87.8137 67.1861L88.8494 67.2385L88.797 68.2742L87.7613 68.2218L87.8137 67.1861ZM87.7089 69.2575L88.7446 69.3099L88.6922 70.3456L87.6565 70.2932L87.7089 69.2575ZM87.6565 70.2932L88.6922 70.3456L88.6399 71.3813L87.6042 71.3289L87.6565 70.2932ZM87.6042 71.3289L88.6399 71.3813L88.5875 72.417L87.5518 72.3647L87.6042 71.3289ZM86.5684 71.2766L87.6042 71.3289L87.5518 72.3647L86.5161 72.3123L86.5684 71.2766ZM86.6208 70.2409L87.6565 70.2932L87.6042 71.3289L86.5684 71.2766L86.6208 70.2409ZM86.6732 69.2051L87.7089 69.2575L87.6565 70.2932L86.6208 70.2409L86.6732 69.2051ZM85.6899 68.1171L86.7256 68.1694L86.6732 69.2051L85.6375 69.1528L85.6899 68.1171ZM85.6375 69.1528L86.6732 69.2051L86.6208 70.2409L85.5851 70.1885L85.6375 69.1528ZM85.5851 70.1885L86.6208 70.2409L86.5684 71.2766L85.5327 71.2242L85.5851 70.1885ZM84.5494 70.1361L85.5851 70.1885L85.5327 71.2242L84.497 71.1718L84.5494 70.1361ZM85.5327 71.2242L86.5684 71.2766L86.5161 72.3123L85.4804 72.2599L85.5327 71.2242ZM86.5161 72.3123L87.5518 72.3647L87.4994 73.4004L86.4637 73.348L86.5161 72.3123ZM85.4804 72.2599L86.5161 72.3123L86.4637 73.348L85.428 73.2956L85.4804 72.2599ZM84.497 71.1718L85.5327 71.2242L85.4804 72.2599L84.4446 72.2075L84.497 71.1718ZM84.4446 72.2075L85.4804 72.2599L85.428 73.2956L84.3923 73.2433L84.4446 72.2075ZM85.428 73.2956L86.4637 73.348L86.4113 74.3837L85.3756 74.3313L85.428 73.2956ZM84.3923 73.2433L85.428 73.2956L85.3756 74.3313L84.3399 74.279L84.3923 73.2433ZM83.3566 73.1909L84.3923 73.2433L84.3399 74.279L83.3042 74.2266L83.3566 73.1909ZM82.3208 73.1385L83.3566 73.1909L83.3042 74.2266L82.2685 74.1742L82.3208 73.1385ZM81.2851 73.0861L82.3208 73.1385L82.2685 74.1742L81.2328 74.1218L81.2851 73.0861ZM80.2494 73.0338L81.2851 73.0861L81.2328 74.1218L80.197 74.0695L80.2494 73.0338ZM80.3018 71.998L81.3375 72.0504L81.2851 73.0861L80.2494 73.0338L80.3018 71.998ZM81.3375 72.0504L82.3732 72.1028L82.3208 73.1385L81.2851 73.0861L81.3375 72.0504ZM81.3899 71.0147L82.4256 71.0671L82.3732 72.1028L81.3375 72.0504L81.3899 71.0147ZM82.4256 71.0671L83.4613 71.1195L83.4089 72.1552L82.3732 72.1028L82.4256 71.0671ZM83.4613 71.1195L84.497 71.1718L84.4446 72.2075L83.4089 72.1552L83.4613 71.1195ZM83.4089 72.1552L84.4446 72.2075L84.3923 73.2433L83.3566 73.1909L83.4089 72.1552ZM82.3732 72.1028L83.4089 72.1552L83.3566 73.1909L82.3208 73.1385L82.3732 72.1028ZM79.2661 71.9457L80.3018 71.998L80.2494 73.0338L79.2137 72.9814L79.2661 71.9457ZM80.3542 70.9623L81.3899 71.0147L81.3375 72.0504L80.3018 71.998L80.3542 70.9623ZM80.4065 69.9266L81.4423 69.979L81.3899 71.0147L80.3542 70.9623L80.4065 69.9266ZM79.3708 69.8742L80.4065 69.9266L80.3542 70.9623L79.3185 70.91L79.3708 69.8742ZM79.3185 70.91L80.3542 70.9623L80.3018 71.998L79.2661 71.9457L79.3185 70.91ZM78.2827 70.8576L79.3185 70.91L79.2661 71.9457L78.2304 71.8933L78.2827 70.8576ZM78.3351 69.8219L79.3708 69.8742L79.3185 70.91L78.2827 70.8576L78.3351 69.8219ZM78.3875 68.7862L79.4232 68.8385L79.3708 69.8742L78.3351 69.8219L78.3875 68.7862ZM78.4399 67.7504L79.4756 67.8028L79.4232 68.8385L78.3875 68.7862L78.4399 67.7504ZM78.4922 66.7147L79.5279 66.7671L79.4756 67.8028L78.4399 67.7504L78.4922 66.7147ZM78.5446 65.679L79.5803 65.7314L79.5279 66.7671L78.4922 66.7147L78.5446 65.679ZM78.597 64.6433L79.6327 64.6957L79.5803 65.7314L78.5446 65.679L78.597 64.6433ZM78.6494 63.6076L79.6851 63.66L79.6327 64.6957L78.597 64.6433L78.6494 63.6076ZM78.7017 62.5719L79.7374 62.6242L79.6851 63.66L78.6494 63.6076L78.7017 62.5719ZM78.7541 61.5362L79.7898 61.5885L79.7374 62.6242L78.7017 62.5719L78.7541 61.5362ZM79.7898 61.5885L80.8255 61.6409L80.7732 62.6766L79.7374 62.6242L79.7898 61.5885ZM80.8255 61.6409L81.8612 61.6933L81.8089 62.729L80.7732 62.6766L80.8255 61.6409ZM80.7732 62.6766L81.8089 62.729L81.7565 63.7647L80.7208 63.7123L80.7732 62.6766ZM80.7208 63.7123L81.7565 63.7647L81.7041 64.8004L80.6684 64.748L80.7208 63.7123ZM80.6684 64.748L81.7041 64.8004L81.6517 65.8361L80.616 65.7838L80.6684 64.748ZM80.616 65.7838L81.6517 65.8361L81.5994 66.8718L80.5637 66.8195L80.616 65.7838ZM80.5637 66.8195L81.5994 66.8718L81.547 67.9076L80.5113 67.8552L80.5637 66.8195ZM80.5113 67.8552L81.547 67.9076L81.4946 68.9433L80.4589 68.8909L80.5113 67.8552ZM80.4589 68.8909L81.4946 68.9433L81.4423 69.979L80.4065 69.9266L80.4589 68.8909ZM79.4232 68.8385L80.4589 68.8909L80.4065 69.9266L79.3708 69.8742L79.4232 68.8385ZM79.4756 67.8028L80.5113 67.8552L80.4589 68.8909L79.4232 68.8385L79.4756 67.8028ZM79.5279 66.7671L80.5637 66.8195L80.5113 67.8552L79.4756 67.8028L79.5279 66.7671ZM79.5803 65.7314L80.616 65.7838L80.5637 66.8195L79.5279 66.7671L79.5803 65.7314ZM79.6327 64.6957L80.6684 64.748L80.616 65.7838L79.5803 65.7314L79.6327 64.6957ZM79.6851 63.66L80.7208 63.7123L80.6684 64.748L79.6327 64.6957L79.6851 63.66ZM79.7374 62.6242L80.7732 62.6766L80.7208 63.7123L79.6851 63.66L79.7374 62.6242ZM78.2304 71.8933L79.2661 71.9457L79.2137 72.9814L78.178 72.929L78.2304 71.8933ZM78.178 72.929L79.2137 72.9814L79.1613 74.0171L78.1256 73.9647L78.178 72.929ZM79.2137 72.9814L80.2494 73.0338L80.197 74.0695L79.1613 74.0171L79.2137 72.9814ZM79.9469 58.4814L80.9826 58.5338L80.9303 59.5695L79.8946 59.5171L79.9469 58.4814ZM78.9112 58.429L79.9469 58.4814L79.8946 59.5171L78.8588 59.4647L78.9112 58.429ZM78.8588 59.4647L79.8946 59.5171L79.8422 60.5528L78.8065 60.5004L78.8588 59.4647ZM93.4082 59.1621L94.4439 59.2145L94.3915 60.2502L93.3558 60.1978L93.4082 59.1621ZM94.4439 59.2145L95.4796 59.2668L95.4272 60.3026L94.3915 60.2502L94.4439 59.2145ZM95.4796 59.2668L96.5153 59.3192L96.4629 60.3549L95.4272 60.3026L95.4796 59.2668ZM96.5153 59.3192L97.551 59.3716L97.4987 60.4073L96.4629 60.3549L96.5153 59.3192ZM97.551 59.3716L98.5867 59.424L98.5344 60.4597L97.4987 60.4073L97.551 59.3716ZM98.5867 59.424L99.6225 59.4763L99.5701 60.5121L98.5344 60.4597L98.5867 59.424ZM98.5344 60.4597L99.5701 60.5121L99.5177 61.5478L98.482 61.4954L98.5344 60.4597ZM99.5701 60.5121L100.606 60.5644L100.553 61.6001L99.5177 61.5478L99.5701 60.5121ZM97.4987 60.4073L98.5344 60.4597L98.482 61.4954L97.4463 61.443L97.4987 60.4073ZM96.4629 60.3549L97.4987 60.4073L97.4463 61.443L96.4106 61.3906L96.4629 60.3549ZM95.4272 60.3026L96.4629 60.3549L96.4106 61.3906L95.3749 61.3383L95.4272 60.3026ZM94.3915 60.2502L95.4272 60.3026L95.3749 61.3383L94.3391 61.2859L94.3915 60.2502ZM93.3558 60.1978L94.3915 60.2502L94.3391 61.2859L93.3034 61.2335L93.3558 60.1978ZM92.2677 61.1811L93.3034 61.2335L93.2511 62.2692L92.2153 62.2169L92.2677 61.1811ZM92.3201 60.1454L93.3558 60.1978L93.3034 61.2335L92.2677 61.1811L92.3201 60.1454ZM91.232 61.1288L92.2677 61.1811L92.2153 62.2169L91.1796 62.1645L91.232 61.1288ZM93.3034 61.2335L94.3391 61.2859L94.2868 62.3216L93.2511 62.2692L93.3034 61.2335ZM94.3391 61.2859L95.3749 61.3383L95.3225 62.374L94.2868 62.3216L94.3391 61.2859ZM95.3749 61.3383L96.4106 61.3906L96.3582 62.4264L95.3225 62.374L95.3749 61.3383ZM96.4106 61.3906L97.4463 61.443L97.3939 62.4787L96.3582 62.4264L96.4106 61.3906ZM97.4463 61.443L98.482 61.4954L98.4296 62.5311L97.3939 62.4787L97.4463 61.443ZM98.482 61.4954L99.5177 61.5478L99.4653 62.5835L98.4296 62.5311L98.482 61.4954ZM99.5177 61.5478L100.553 61.6001L100.501 62.6359L99.4653 62.5835L99.5177 61.5478ZM100.553 61.6001L101.589 61.6525L101.537 62.6882L100.501 62.6359L100.553 61.6001ZM100.501 62.6359L101.537 62.6882L101.484 63.7239L100.449 63.6716L100.501 62.6359ZM99.4653 62.5835L100.501 62.6359L100.449 63.6716L99.413 63.6192L99.4653 62.5835ZM98.4296 62.5311L99.4653 62.5835L99.413 63.6192L98.3773 63.5668L98.4296 62.5311ZM97.3939 62.4787L98.4296 62.5311L98.3773 63.5668L97.3415 63.5144L97.3939 62.4787ZM98.3773 63.5668L99.413 63.6192L99.3606 64.6549L98.3249 64.6025L98.3773 63.5668ZM98.3249 64.6025L99.3606 64.6549L99.3082 65.6906L98.2725 65.6382L98.3249 64.6025ZM98.2725 65.6382L99.3082 65.6906L99.2558 66.7263L98.2201 66.674L98.2725 65.6382ZM98.2201 66.674L99.2558 66.7263L99.2035 67.762L98.1678 67.7097L98.2201 66.674ZM98.1678 67.7097L99.2035 67.762L99.1511 68.7978L98.1154 68.7454L98.1678 67.7097ZM99.2558 66.7263L100.292 66.7787L100.239 67.8144L99.2035 67.762L99.2558 66.7263ZM100.292 66.7787L101.327 66.8311L101.275 67.8668L100.239 67.8144L100.292 66.7787ZM100.344 65.743L101.38 65.7954L101.327 66.8311L100.292 66.7787L100.344 65.743ZM100.396 64.7073L101.432 64.7597L101.38 65.7954L100.344 65.743L100.396 64.7073ZM100.449 63.6716L101.484 63.7239L101.432 64.7597L100.396 64.7073L100.449 63.6716ZM99.413 63.6192L100.449 63.6716L100.396 64.7073L99.3606 64.6549L99.413 63.6192ZM99.3606 64.6549L100.396 64.7073L100.344 65.743L99.3082 65.6906L99.3606 64.6549ZM99.3082 65.6906L100.344 65.743L100.292 66.7787L99.2558 66.7263L99.3082 65.6906ZM99.2035 67.762L100.239 67.8144L100.187 68.8501L99.1511 68.7978L99.2035 67.762ZM99.1511 68.7978L100.187 68.8501L100.134 69.8858L99.0987 69.8335L99.1511 68.7978ZM100.187 68.8501L101.223 68.9025L101.17 69.9382L100.134 69.8858L100.187 68.8501ZM100.239 67.8144L101.275 67.8668L101.223 68.9025L100.187 68.8501L100.239 67.8144ZM100.134 69.8858L101.17 69.9382L101.118 70.9739L100.082 70.9216L100.134 69.8858ZM100.082 70.9216L101.118 70.9739L101.065 72.0096L100.03 71.9573L100.082 70.9216ZM100.03 71.9573L101.065 72.0096L101.013 73.0454L99.9773 72.993L100.03 71.9573ZM98.994 71.9049L100.03 71.9573L99.9773 72.993L98.9416 72.9406L98.994 71.9049ZM99.0464 70.8692L100.082 70.9216L100.03 71.9573L98.994 71.9049L99.0464 70.8692ZM99.0987 69.8335L100.134 69.8858L100.082 70.9216L99.0464 70.8692L99.0987 69.8335ZM98.1154 68.7454L99.1511 68.7978L99.0987 69.8335L98.063 69.7811L98.1154 68.7454ZM98.063 69.7811L99.0987 69.8335L99.0464 70.8692L98.0106 70.8168L98.063 69.7811ZM98.0106 70.8168L99.0464 70.8692L98.994 71.9049L97.9583 71.8525L98.0106 70.8168ZM96.9749 70.7644L98.0106 70.8168L97.9583 71.8525L96.9225 71.8002L96.9749 70.7644ZM97.9583 71.8525L98.994 71.9049L98.9416 72.9406L97.9059 72.8882L97.9583 71.8525ZM98.9416 72.9406L99.9773 72.993L99.9249 74.0287L98.8892 73.9763L98.9416 72.9406ZM97.9059 72.8882L98.9416 72.9406L98.8892 73.9763L97.8535 73.924L97.9059 72.8882ZM96.9225 71.8002L97.9583 71.8525L97.9059 72.8882L96.8702 72.8359L96.9225 71.8002ZM96.8702 72.8359L97.9059 72.8882L97.8535 73.924L96.8178 73.8716L96.8702 72.8359ZM97.8535 73.924L98.8892 73.9763L98.8369 75.012L97.8011 74.9597L97.8535 73.924ZM96.8178 73.8716L97.8535 73.924L97.8011 74.9597L96.7654 74.9073L96.8178 73.8716ZM95.7821 73.8192L96.8178 73.8716L96.7654 74.9073L95.7297 74.8549L95.7821 73.8192ZM94.7464 73.7668L95.7821 73.8192L95.7297 74.8549L94.694 74.8025L94.7464 73.7668ZM93.7107 73.7145L94.7464 73.7668L94.694 74.8025L93.6583 74.7502L93.7107 73.7145ZM92.6749 73.6621L93.7107 73.7145L93.6583 74.7502L92.6226 74.6978L92.6749 73.6621ZM92.7273 72.6264L93.763 72.6787L93.7107 73.7145L92.6749 73.6621L92.7273 72.6264ZM93.763 72.6787L94.7987 72.7311L94.7464 73.7668L93.7107 73.7145L93.763 72.6787ZM93.8154 71.643L94.8511 71.6954L94.7987 72.7311L93.763 72.6787L93.8154 71.643ZM94.8511 71.6954L95.8868 71.7478L95.8345 72.7835L94.7987 72.7311L94.8511 71.6954ZM95.8868 71.7478L96.9225 71.8002L96.8702 72.8359L95.8345 72.7835L95.8868 71.7478ZM95.8345 72.7835L96.8702 72.8359L96.8178 73.8716L95.7821 73.8192L95.8345 72.7835ZM94.7987 72.7311L95.8345 72.7835L95.7821 73.8192L94.7464 73.7668L94.7987 72.7311ZM91.6916 72.574L92.7273 72.6264L92.6749 73.6621L91.6392 73.6097L91.6916 72.574ZM92.7797 71.5907L93.8154 71.643L93.763 72.6787L92.7273 72.6264L92.7797 71.5907ZM93.8678 70.6073L94.9035 70.6597L94.8511 71.6954L93.8154 71.643L93.8678 70.6073ZM92.8321 70.5549L93.8678 70.6073L93.8154 71.643L92.7797 71.5907L92.8321 70.5549ZM91.7964 70.5026L92.8321 70.5549L92.7797 71.5907L91.744 71.5383L91.7964 70.5026ZM91.744 71.5383L92.7797 71.5907L92.7273 72.6264L91.6916 72.574L91.744 71.5383ZM90.7083 71.4859L91.744 71.5383L91.6916 72.574L90.6559 72.5216L90.7083 71.4859ZM90.7606 70.4502L91.7964 70.5026L91.744 71.5383L90.7083 71.4859L90.7606 70.4502ZM90.813 69.4145L91.8487 69.4669L91.7964 70.5026L90.7606 70.4502L90.813 69.4145ZM90.8654 68.3788L91.9011 68.4311L91.8487 69.4669L90.813 69.4145L90.8654 68.3788ZM90.9178 67.3431L91.9535 67.3954L91.9011 68.4311L90.8654 68.3788L90.9178 67.3431ZM90.9701 66.3073L92.0058 66.3597L91.9535 67.3954L90.9178 67.3431L90.9701 66.3073ZM91.0225 65.2716L92.0582 65.324L92.0058 66.3597L90.9701 66.3073L91.0225 65.2716ZM91.0749 64.2359L92.1106 64.2883L92.0582 65.324L91.0225 65.2716L91.0749 64.2359ZM91.1273 63.2002L92.163 63.2526L92.1106 64.2883L91.0749 64.2359L91.1273 63.2002ZM91.1796 62.1645L92.2153 62.2169L92.163 63.2526L91.1273 63.2002L91.1796 62.1645ZM92.2153 62.2169L93.2511 62.2692L93.1987 63.305L92.163 63.2526L92.2153 62.2169ZM93.2511 62.2692L94.2868 62.3216L94.2344 63.3573L93.1987 63.305L93.2511 62.2692ZM94.2868 62.3216L95.3225 62.374L95.2701 63.4097L94.2344 63.3573L94.2868 62.3216ZM93.1987 63.305L94.2344 63.3573L94.182 64.393L93.1463 64.3407L93.1987 63.305ZM93.1463 64.3407L94.182 64.393L94.1296 65.4288L93.0939 65.3764L93.1463 64.3407ZM93.0939 65.3764L94.1296 65.4288L94.0773 66.4645L93.0416 66.4121L93.0939 65.3764ZM93.0416 66.4121L94.0773 66.4645L94.0249 67.5002L92.9892 67.4478L93.0416 66.4121ZM92.9892 67.4478L94.0249 67.5002L93.9725 68.5359L92.9368 68.4835L92.9892 67.4478ZM92.9368 68.4835L93.9725 68.5359L93.9202 69.5716L92.8844 69.5192L92.9368 68.4835ZM92.8844 69.5192L93.9202 69.5716L93.8678 70.6073L92.8321 70.5549L92.8844 69.5192ZM91.8487 69.4669L92.8844 69.5192L92.8321 70.5549L91.7964 70.5026L91.8487 69.4669ZM91.9011 68.4311L92.9368 68.4835L92.8844 69.5192L91.8487 69.4669L91.9011 68.4311ZM91.9535 67.3954L92.9892 67.4478L92.9368 68.4835L91.9011 68.4311L91.9535 67.3954ZM92.0058 66.3597L93.0416 66.4121L92.9892 67.4478L91.9535 67.3954L92.0058 66.3597ZM92.0582 65.324L93.0939 65.3764L93.0416 66.4121L92.0058 66.3597L92.0582 65.324ZM92.1106 64.2883L93.1463 64.3407L93.0939 65.3764L92.0582 65.324L92.1106 64.2883ZM92.163 63.2526L93.1987 63.305L93.1463 64.3407L92.1106 64.2883L92.163 63.2526ZM103.762 59.6857L104.798 59.7381L104.746 60.7738L103.71 60.7214L103.762 59.6857ZM104.798 59.7381L105.834 59.7904L105.781 60.8261L104.746 60.7738L104.798 59.7381ZM104.746 60.7738L105.781 60.8261L105.729 61.8619L104.693 61.8095L104.746 60.7738ZM104.693 61.8095L105.729 61.8619L105.677 62.8976L104.641 62.8452L104.693 61.8095ZM104.641 62.8452L105.677 62.8976L105.624 63.9333L104.588 63.8809L104.641 62.8452ZM104.588 63.8809L105.624 63.9333L105.572 64.969L104.536 64.9166L104.588 63.8809ZM105.677 62.8976L106.712 62.9499L106.66 63.9857L105.624 63.9333L105.677 62.8976ZM105.729 61.8619L106.765 61.9142L106.712 62.9499L105.677 62.8976L105.729 61.8619ZM105.781 60.8261L106.817 60.8785L106.765 61.9142L105.729 61.8619L105.781 60.8261ZM105.834 59.7904L106.869 59.8428L106.817 60.8785L105.781 60.8261L105.834 59.7904ZM103.658 61.7571L104.693 61.8095L104.641 62.8452L103.605 62.7928L103.658 61.7571ZM103.71 60.7214L104.746 60.7738L104.693 61.8095L103.658 61.7571L103.71 60.7214ZM103.605 62.7928L104.641 62.8452L104.588 63.8809L103.553 63.8285L103.605 62.7928ZM103.553 63.8285L104.588 63.8809L104.536 64.9166L103.5 64.8642L103.553 63.8285ZM103.5 64.8642L104.536 64.9166L104.484 65.9523L103.448 65.9L103.5 64.8642ZM103.448 65.9L104.484 65.9523L104.431 66.988L103.396 66.9357L103.448 65.9ZM103.396 66.9357L104.431 66.988L104.379 68.0238L103.343 67.9714L103.396 66.9357ZM103.343 67.9714L104.379 68.0238L104.327 69.0595L103.291 69.0071L103.343 67.9714ZM103.291 69.0071L104.327 69.0595L104.274 70.0952L103.239 70.0428L103.291 69.0071ZM103.239 70.0428L104.274 70.0952L104.222 71.1309L103.186 71.0785L103.239 70.0428ZM103.186 71.0785L104.222 71.1309L104.17 72.1666L103.134 72.1142L103.186 71.0785ZM103.134 72.1142L104.17 72.1666L104.117 73.2023L103.081 73.15L103.134 72.1142ZM104.17 72.1666L105.205 72.219L105.153 73.2547L104.117 73.2023L104.17 72.1666ZM104.117 73.2023L105.153 73.2547L105.1 74.2904L104.065 74.238L104.117 73.2023ZM104.065 74.238L105.1 74.2904L105.048 75.3261L104.012 75.2738L104.065 74.238ZM103.029 74.1857L104.065 74.238L104.012 75.2738L102.977 75.2214L103.029 74.1857ZM103.081 73.15L104.117 73.2023L104.065 74.238L103.029 74.1857L103.081 73.15ZM105.1 74.2904L106.136 74.3428L106.084 75.3785L105.048 75.3261L105.1 74.2904ZM105.153 73.2547L106.189 73.3071L106.136 74.3428L105.1 74.2904L105.153 73.2547ZM105.205 72.219L106.241 72.2714L106.189 73.3071L105.153 73.2547L105.205 72.219ZM105.258 71.1833L106.293 71.2356L106.241 72.2714L105.205 72.219L105.258 71.1833ZM105.31 70.1476L106.346 70.1999L106.293 71.2356L105.258 71.1833L105.31 70.1476ZM105.362 69.1118L106.398 69.1642L106.346 70.1999L105.31 70.1476L105.362 69.1118ZM105.415 68.0761L106.45 68.1285L106.398 69.1642L105.362 69.1118L105.415 68.0761ZM104.379 68.0238L105.415 68.0761L105.362 69.1118L104.327 69.0595L104.379 68.0238ZM104.431 66.988L105.467 67.0404L105.415 68.0761L104.379 68.0238L104.431 66.988ZM104.484 65.9523L105.519 66.0047L105.467 67.0404L104.431 66.988L104.484 65.9523ZM104.536 64.9166L105.572 64.969L105.519 66.0047L104.484 65.9523L104.536 64.9166ZM105.624 63.9333L106.66 63.9857L106.608 65.0214L105.572 64.969L105.624 63.9333ZM105.572 64.969L106.608 65.0214L106.555 66.0571L105.519 66.0047L105.572 64.969ZM105.519 66.0047L106.555 66.0571L106.503 67.0928L105.467 67.0404L105.519 66.0047ZM105.467 67.0404L106.503 67.0928L106.45 68.1285L105.415 68.0761L105.467 67.0404ZM104.327 69.0595L105.362 69.1118L105.31 70.1476L104.274 70.0952L104.327 69.0595ZM104.274 70.0952L105.31 70.1476L105.258 71.1833L104.222 71.1309L104.274 70.0952ZM104.222 71.1309L105.258 71.1833L105.205 72.219L104.17 72.1666L104.222 71.1309ZM118.262 60.4189L119.298 60.4713L119.246 61.507L118.21 61.4546L118.262 60.4189ZM118.21 61.4546L119.246 61.507L119.193 62.5427L118.158 62.4903L118.21 61.4546ZM118.158 62.4903L119.193 62.5427L119.141 63.5784L118.105 63.526L118.158 62.4903ZM118.105 63.526L119.141 63.5784L119.088 64.6141L118.053 64.5618L118.105 63.526ZM118.053 64.5618L119.088 64.6141L119.036 65.6499L118 65.5975L118.053 64.5618ZM118 65.5975L119.036 65.6499L118.984 66.6856L117.948 66.6332L118 65.5975ZM117.948 66.6332L118.984 66.6856L118.931 67.7213L117.896 67.6689L117.948 66.6332ZM117.896 67.6689L118.931 67.7213L118.879 68.757L117.843 68.7046L117.896 67.6689ZM117.843 68.7046L118.879 68.757L118.827 69.7927L117.791 69.7403L117.843 68.7046ZM117.791 69.7403L118.827 69.7927L118.774 70.8284L117.739 70.776L117.791 69.7403ZM117.739 70.776L118.774 70.8284L118.722 71.8641L117.686 71.8118L117.739 70.776ZM117.686 71.8118L118.722 71.8641L118.67 72.8998L117.634 72.8475L117.686 71.8118ZM117.634 72.8475L118.67 72.8998L118.617 73.9356L117.581 73.8832L117.634 72.8475ZM117.581 73.8832L118.617 73.9356L118.565 74.9713L117.529 74.9189L117.581 73.8832ZM117.529 74.9189L118.565 74.9713L118.512 76.007L117.477 75.9546L117.529 74.9189ZM116.493 74.8665L117.529 74.9189L117.477 75.9546L116.441 75.9022L116.493 74.8665ZM115.51 73.7784L116.546 73.8308L116.493 74.8665L115.458 74.8142L115.51 73.7784ZM115.562 72.7427L116.598 72.7951L116.546 73.8308L115.51 73.7784L115.562 72.7427ZM115.458 74.8142L116.493 74.8665L116.441 75.9022L115.405 75.8499L115.458 74.8142ZM116.546 73.8308L117.581 73.8832L117.529 74.9189L116.493 74.8665L116.546 73.8308ZM116.598 72.7951L117.634 72.8475L117.581 73.8832L116.546 73.8308L116.598 72.7951ZM116.65 71.7594L117.686 71.8118L117.634 72.8475L116.598 72.7951L116.65 71.7594ZM116.703 70.7237L117.739 70.776L117.686 71.8118L116.65 71.7594L116.703 70.7237ZM116.755 69.688L117.791 69.7403L117.739 70.776L116.703 70.7237L116.755 69.688ZM116.808 68.6522L117.843 68.7046L117.791 69.7403L116.755 69.688L116.808 68.6522ZM116.86 67.6165L117.896 67.6689L117.843 68.7046L116.808 68.6522L116.86 67.6165ZM116.912 66.5808L117.948 66.6332L117.896 67.6689L116.86 67.6165L116.912 66.5808ZM116.965 65.5451L118 65.5975L117.948 66.6332L116.912 66.5808L116.965 65.5451ZM117.017 64.5094L118.053 64.5618L118 65.5975L116.965 65.5451L117.017 64.5094ZM117.069 63.4737L118.105 63.526L118.053 64.5618L117.017 64.5094L117.069 63.4737ZM117.122 62.438L118.158 62.4903L118.105 63.526L117.069 63.4737L117.122 62.438ZM117.174 61.4022L118.21 61.4546L118.158 62.4903L117.122 62.438L117.174 61.4022ZM117.227 60.3665L118.262 60.4189L118.21 61.4546L117.174 61.4022L117.227 60.3665ZM116.191 60.3142L117.227 60.3665L117.174 61.4022L116.138 61.3499L116.191 60.3142ZM116.138 61.3499L117.174 61.4022L117.122 62.438L116.086 62.3856L116.138 61.3499ZM116.086 62.3856L117.122 62.438L117.069 63.4737L116.034 63.4213L116.086 62.3856ZM116.034 63.4213L117.069 63.4737L117.017 64.5094L115.981 64.457L116.034 63.4213ZM115.929 65.4927L116.965 65.5451L116.912 66.5808L115.877 66.5284L115.929 65.4927ZM115.877 66.5284L116.912 66.5808L116.86 67.6165L115.824 67.5642L115.877 66.5284ZM115.824 67.5642L116.86 67.6165L116.808 68.6522L115.772 68.5999L115.824 67.5642ZM115.772 68.5999L116.808 68.6522L116.755 69.688L115.719 69.6356L115.772 68.5999ZM115.615 71.707L116.65 71.7594L116.598 72.7951L115.562 72.7427L115.615 71.707ZM115.667 70.6713L116.703 70.7237L116.65 71.7594L115.615 71.707L115.667 70.6713ZM115.719 69.6356L116.755 69.688L116.703 70.7237L115.667 70.6713L115.719 69.6356ZM115.981 64.457L117.017 64.5094L116.965 65.5451L115.929 65.4927L115.981 64.457ZM106.817 60.8785L107.853 60.9309L107.8 61.9666L106.765 61.9142L106.817 60.8785ZM106.765 61.9142L107.8 61.9666L107.748 63.0023L106.712 62.9499L106.765 61.9142ZM106.712 62.9499L107.748 63.0023L107.696 64.038L106.66 63.9857L106.712 62.9499ZM106.66 63.9857L107.696 64.038L107.643 65.0737L106.608 65.0214L106.66 63.9857ZM106.608 65.0214L107.643 65.0737L107.591 66.1095L106.555 66.0571L106.608 65.0214ZM107.8 61.9666L108.836 62.019L108.784 63.0547L107.748 63.0023L107.8 61.9666ZM107.748 63.0023L108.784 63.0547L108.731 64.0904L107.696 64.038L107.748 63.0023ZM107.696 64.038L108.731 64.0904L108.679 65.1261L107.643 65.0737L107.696 64.038ZM107.643 65.0737L108.679 65.1261L108.627 66.1618L107.591 66.1095L107.643 65.0737ZM107.591 66.1095L108.627 66.1618L108.574 67.1975L107.539 67.1452L107.591 66.1095ZM108.784 63.0547L109.819 63.1071L109.767 64.1428L108.731 64.0904L108.784 63.0547ZM108.731 64.0904L109.767 64.1428L109.715 65.1785L108.679 65.1261L108.731 64.0904ZM108.679 65.1261L109.715 65.1785L109.662 66.2142L108.627 66.1618L108.679 65.1261ZM108.627 66.1618L109.662 66.2142L109.61 67.2499L108.574 67.1975L108.627 66.1618ZM108.574 67.1975L109.61 67.2499L109.558 68.2856L108.522 68.2333L108.574 67.1975ZM109.767 64.1428L110.803 64.1951L110.75 65.2309L109.715 65.1785L109.767 64.1428ZM109.715 65.1785L110.75 65.2309L110.698 66.2666L109.662 66.2142L109.715 65.1785ZM109.662 66.2142L110.698 66.2666L110.646 67.3023L109.61 67.2499L109.662 66.2142ZM109.61 67.2499L110.646 67.3023L110.593 68.338L109.558 68.2856L109.61 67.2499ZM109.558 68.2856L110.593 68.338L110.541 69.3737L109.505 69.3213L109.558 68.2856ZM110.75 65.2309L111.786 65.2832L111.734 66.3189L110.698 66.2666L110.75 65.2309ZM110.698 66.2666L111.734 66.3189L111.681 67.3547L110.646 67.3023L110.698 66.2666ZM110.646 67.3023L111.681 67.3547L111.629 68.3904L110.593 68.338L110.646 67.3023ZM111.838 64.2475L112.874 64.2999L112.822 65.3356L111.786 65.2832L111.838 64.2475ZM111.786 65.2832L112.822 65.3356L112.769 66.3713L111.734 66.3189L111.786 65.2832ZM111.734 66.3189L112.769 66.3713L112.717 67.407L111.681 67.3547L111.734 66.3189ZM112.927 63.2642L113.962 63.3166L113.91 64.3523L112.874 64.2999L112.927 63.2642ZM112.874 64.2999L113.91 64.3523L113.858 65.388L112.822 65.3356L112.874 64.2999ZM112.822 65.3356L113.858 65.388L113.805 66.4237L112.769 66.3713L112.822 65.3356ZM115.103 61.2975L116.138 61.3499L116.086 62.3856L115.05 62.3332L115.103 61.2975ZM115.05 62.3332L116.086 62.3856L116.034 63.4213L114.998 63.3689L115.05 62.3332ZM114.998 63.3689L116.034 63.4213L115.981 64.457L114.946 64.4046L114.998 63.3689ZM114.946 64.4046L115.981 64.457L115.929 65.4927L114.893 65.4404L114.946 64.4046ZM114.893 65.4404L115.929 65.4927L115.877 66.5284L114.841 66.4761L114.893 65.4404ZM114.015 62.2808L115.05 62.3332L114.998 63.3689L113.962 63.3166L114.015 62.2808ZM113.962 63.3166L114.998 63.3689L114.946 64.4046L113.91 64.3523L113.962 63.3166ZM113.91 64.3523L114.946 64.4046L114.893 65.4404L113.858 65.388L113.91 64.3523ZM113.858 65.388L114.893 65.4404L114.841 66.4761L113.805 66.4237L113.858 65.388ZM113.805 66.4237L114.841 66.4761L114.789 67.5118L113.753 67.4594L113.805 66.4237ZM112.769 66.3713L113.805 66.4237L113.753 67.4594L112.717 67.407L112.769 66.3713ZM112.717 67.407L113.753 67.4594L113.7 68.4951L112.665 68.4427L112.717 67.407ZM111.681 67.3547L112.717 67.407L112.665 68.4427L111.629 68.3904L111.681 67.3547ZM111.629 68.3904L112.665 68.4427L112.612 69.4785L111.577 69.4261L111.629 68.3904ZM110.593 68.338L111.629 68.3904L111.577 69.4261L110.541 69.3737L110.593 68.338ZM110.541 69.3737L111.577 69.4261L111.524 70.4618L110.489 70.4094L110.541 69.3737ZM51.0991 85.0584L52.1348 85.1108L52.0824 86.1465L51.0467 86.0941L51.0991 85.0584ZM52.1348 85.1108L53.1705 85.1631L53.1181 86.1989L52.0824 86.1465L52.1348 85.1108ZM53.1705 85.1631L54.2062 85.2155L54.1538 86.2512L53.1181 86.1989L53.1705 85.1631ZM54.2062 85.2155L55.2419 85.2679L55.1896 86.3036L54.1538 86.2512L54.2062 85.2155ZM55.2419 85.2679L56.2776 85.3203L56.2253 86.356L55.1896 86.3036L55.2419 85.2679ZM56.2776 85.3203L57.3134 85.3726L57.261 86.4084L56.2253 86.356L56.2776 85.3203ZM56.2253 86.356L57.261 86.4084L57.2086 87.4441L56.1729 87.3917L56.2253 86.356ZM57.261 86.4084L58.2967 86.4607L58.2443 87.4964L57.2086 87.4441L57.261 86.4084ZM55.1896 86.3036L56.2253 86.356L56.1729 87.3917L55.1372 87.3393L55.1896 86.3036ZM54.1538 86.2512L55.1896 86.3036L55.1372 87.3393L54.1015 87.2869L54.1538 86.2512ZM53.1181 86.1989L54.1538 86.2512L54.1015 87.2869L53.0658 87.2346L53.1181 86.1989ZM52.0824 86.1465L53.1181 86.1989L53.0658 87.2346L52.03 87.1822L52.0824 86.1465ZM51.0467 86.0941L52.0824 86.1465L52.03 87.1822L50.9943 87.1298L51.0467 86.0941ZM49.9586 87.0775L50.9943 87.1298L50.942 88.1655L49.9062 88.1132L49.9586 87.0775ZM50.011 86.0417L51.0467 86.0941L50.9943 87.1298L49.9586 87.0775L50.011 86.0417ZM48.9229 87.0251L49.9586 87.0775L49.9062 88.1132L48.8705 88.0608L48.9229 87.0251ZM50.9943 87.1298L52.03 87.1822L51.9777 88.2179L50.942 88.1655L50.9943 87.1298ZM52.03 87.1822L53.0658 87.2346L53.0134 88.2703L51.9777 88.2179L52.03 87.1822ZM53.0658 87.2346L54.1015 87.2869L54.0491 88.3227L53.0134 88.2703L53.0658 87.2346ZM54.1015 87.2869L55.1372 87.3393L55.0848 88.375L54.0491 88.3227L54.1015 87.2869ZM55.1372 87.3393L56.1729 87.3917L56.1205 88.4274L55.0848 88.375L55.1372 87.3393ZM56.1729 87.3917L57.2086 87.4441L57.1562 88.4798L56.1205 88.4274L56.1729 87.3917ZM57.2086 87.4441L58.2443 87.4964L58.192 88.5322L57.1562 88.4798L57.2086 87.4441ZM58.2443 87.4964L59.28 87.5488L59.2277 88.5845L58.192 88.5322L58.2443 87.4964ZM58.192 88.5322L59.2277 88.5845L59.1753 89.6202L58.1396 89.5679L58.192 88.5322ZM57.1562 88.4798L58.192 88.5322L58.1396 89.5679L57.1039 89.5155L57.1562 88.4798ZM56.1205 88.4274L57.1562 88.4798L57.1039 89.5155L56.0682 89.4631L56.1205 88.4274ZM55.0848 88.375L56.1205 88.4274L56.0682 89.4631L55.0324 89.4108L55.0848 88.375ZM56.0682 89.4631L57.1039 89.5155L57.0515 90.5512L56.0158 90.4988L56.0682 89.4631ZM56.0158 90.4988L57.0515 90.5512L56.9991 91.5869L55.9634 91.5346L56.0158 90.4988ZM55.9634 91.5346L56.9991 91.5869L56.9467 92.6226L55.911 92.5703L55.9634 91.5346ZM55.911 92.5703L56.9467 92.6226L56.8944 93.6584L55.8587 93.606L55.911 92.5703ZM55.8587 93.606L56.8944 93.6584L56.842 94.6941L55.8063 94.6417L55.8587 93.606ZM56.9467 92.6226L57.9825 92.675L57.9301 93.7107L56.8944 93.6584L56.9467 92.6226ZM57.9825 92.675L59.0182 92.7274L58.9658 93.7631L57.9301 93.7107L57.9825 92.675ZM58.0348 91.6393L59.0705 91.6917L59.0182 92.7274L57.9825 92.675L58.0348 91.6393ZM58.0872 90.6036L59.1229 90.656L59.0705 91.6917L58.0348 91.6393L58.0872 90.6036ZM58.1396 89.5679L59.1753 89.6202L59.1229 90.656L58.0872 90.6036L58.1396 89.5679ZM57.1039 89.5155L58.1396 89.5679L58.0872 90.6036L57.0515 90.5512L57.1039 89.5155ZM57.0515 90.5512L58.0872 90.6036L58.0348 91.6393L56.9991 91.5869L57.0515 90.5512ZM56.9991 91.5869L58.0348 91.6393L57.9825 92.675L56.9467 92.6226L56.9991 91.5869ZM56.8944 93.6584L57.9301 93.7107L57.8777 94.7464L56.842 94.6941L56.8944 93.6584ZM56.842 94.6941L57.8777 94.7464L57.8253 95.7822L56.7896 95.7298L56.842 94.6941ZM57.8777 94.7464L58.9134 94.7988L58.8611 95.8345L57.8253 95.7822L57.8777 94.7464ZM57.9301 93.7107L58.9658 93.7631L58.9134 94.7988L57.8777 94.7464L57.9301 93.7107ZM57.8253 95.7822L58.8611 95.8345L58.8087 96.8702L57.773 96.8179L57.8253 95.7822ZM57.773 96.8179L58.8087 96.8702L58.7563 97.906L57.7206 97.8536L57.773 96.8179ZM57.7206 97.8536L58.7563 97.906L58.7039 98.9417L57.6682 98.8893L57.7206 97.8536ZM56.6849 97.8012L57.7206 97.8536L57.6682 98.8893L56.6325 98.8369L56.6849 97.8012ZM56.7372 96.7655L57.773 96.8179L57.7206 97.8536L56.6849 97.8012L56.7372 96.7655ZM56.7896 95.7298L57.8253 95.7822L57.773 96.8179L56.7372 96.7655L56.7896 95.7298ZM55.8063 94.6417L56.842 94.6941L56.7896 95.7298L55.7539 95.6774L55.8063 94.6417ZM55.7539 95.6774L56.7896 95.7298L56.7372 96.7655L55.7015 96.7131L55.7539 95.6774ZM55.7015 96.7131L56.7372 96.7655L56.6849 97.8012L55.6492 97.7488L55.7015 96.7131ZM54.6658 96.6607L55.7015 96.7131L55.6492 97.7488L54.6134 97.6965L54.6658 96.6607ZM55.6492 97.7488L56.6849 97.8012L56.6325 98.8369L55.5968 98.7845L55.6492 97.7488ZM56.6325 98.8369L57.6682 98.8893L57.6158 99.925L56.5801 99.8726L56.6325 98.8369ZM55.5968 98.7845L56.6325 98.8369L56.5801 99.8726L55.5444 99.8203L55.5968 98.7845ZM54.6134 97.6965L55.6492 97.7488L55.5968 98.7845L54.5611 98.7322L54.6134 97.6965ZM54.5611 98.7322L55.5968 98.7845L55.5444 99.8203L54.5087 99.7679L54.5611 98.7322ZM55.5444 99.8203L56.5801 99.8726L56.5278 100.908L55.492 100.856L55.5444 99.8203ZM54.5087 99.7679L55.5444 99.8203L55.492 100.856L54.4563 100.804L54.5087 99.7679ZM53.473 99.7155L54.5087 99.7679L54.4563 100.804L53.4206 100.751L53.473 99.7155ZM52.4373 99.6631L53.473 99.7155L53.4206 100.751L52.3849 100.699L52.4373 99.6631ZM51.4016 99.6108L52.4373 99.6631L52.3849 100.699L51.3492 100.646L51.4016 99.6108ZM50.3658 99.5584L51.4016 99.6108L51.3492 100.646L50.3135 100.594L50.3658 99.5584ZM50.4182 98.5227L51.4539 98.5751L51.4016 99.6108L50.3658 99.5584L50.4182 98.5227ZM51.4539 98.5751L52.4896 98.6274L52.4373 99.6631L51.4016 99.6108L51.4539 98.5751ZM51.5063 97.5393L52.542 97.5917L52.4896 98.6274L51.4539 98.5751L51.5063 97.5393ZM52.542 97.5917L53.5777 97.6441L53.5254 98.6798L52.4896 98.6274L52.542 97.5917ZM53.5777 97.6441L54.6134 97.6965L54.5611 98.7322L53.5254 98.6798L53.5777 97.6441ZM53.5254 98.6798L54.5611 98.7322L54.5087 99.7679L53.473 99.7155L53.5254 98.6798ZM52.4896 98.6274L53.5254 98.6798L53.473 99.7155L52.4373 99.6631L52.4896 98.6274ZM49.3825 98.4703L50.4182 98.5227L50.3658 99.5584L49.3301 99.506L49.3825 98.4703ZM50.4706 97.487L51.5063 97.5393L51.4539 98.5751L50.4182 98.5227L50.4706 97.487ZM50.523 96.4513L51.5587 96.5036L51.5063 97.5393L50.4706 97.487L50.523 96.4513ZM49.4873 96.3989L50.523 96.4513L50.4706 97.487L49.4349 97.4346L49.4873 96.3989ZM49.4349 97.4346L50.4706 97.487L50.4182 98.5227L49.3825 98.4703L49.4349 97.4346ZM48.3992 97.3822L49.4349 97.4346L49.3825 98.4703L48.3468 98.4179L48.3992 97.3822ZM48.4515 96.3465L49.4873 96.3989L49.4349 97.4346L48.3992 97.3822L48.4515 96.3465ZM48.5039 95.3108L49.5396 95.3632L49.4873 96.3989L48.4515 96.3465L48.5039 95.3108ZM48.5563 94.2751L49.592 94.3275L49.5396 95.3632L48.5039 95.3108L48.5563 94.2751ZM48.6087 93.2394L49.6444 93.2917L49.592 94.3275L48.5563 94.2751L48.6087 93.2394ZM48.661 92.2036L49.6967 92.256L49.6444 93.2917L48.6087 93.2394L48.661 92.2036ZM48.7134 91.1679L49.7491 91.2203L49.6967 92.256L48.661 92.2036L48.7134 91.1679ZM48.7658 90.1322L49.8015 90.1846L49.7491 91.2203L48.7134 91.1679L48.7658 90.1322ZM48.8182 89.0965L49.8539 89.1489L49.8015 90.1846L48.7658 90.1322L48.8182 89.0965ZM48.8705 88.0608L49.9062 88.1132L49.8539 89.1489L48.8182 89.0965L48.8705 88.0608ZM49.9062 88.1132L50.942 88.1655L50.8896 89.2013L49.8539 89.1489L49.9062 88.1132ZM50.942 88.1655L51.9777 88.2179L51.9253 89.2536L50.8896 89.2013L50.942 88.1655ZM50.8896 89.2013L51.9253 89.2536L51.8729 90.2893L50.8372 90.237L50.8896 89.2013ZM50.8372 90.237L51.8729 90.2893L51.8205 91.3251L50.7848 91.2727L50.8372 90.237ZM50.7848 91.2727L51.8205 91.3251L51.7682 92.3608L50.7325 92.3084L50.7848 91.2727ZM50.7325 92.3084L51.7682 92.3608L51.7158 93.3965L50.6801 93.3441L50.7325 92.3084ZM50.6801 93.3441L51.7158 93.3965L51.6634 94.4322L50.6277 94.3798L50.6801 93.3441ZM50.6277 94.3798L51.6634 94.4322L51.6111 95.4679L50.5753 95.4155L50.6277 94.3798ZM50.5753 95.4155L51.6111 95.4679L51.5587 96.5036L50.523 96.4513L50.5753 95.4155ZM49.5396 95.3632L50.5753 95.4155L50.523 96.4513L49.4873 96.3989L49.5396 95.3632ZM49.592 94.3275L50.6277 94.3798L50.5753 95.4155L49.5396 95.3632L49.592 94.3275ZM49.6444 93.2917L50.6801 93.3441L50.6277 94.3798L49.592 94.3275L49.6444 93.2917ZM49.6967 92.256L50.7325 92.3084L50.6801 93.3441L49.6444 93.2917L49.6967 92.256ZM49.7491 91.2203L50.7848 91.2727L50.7325 92.3084L49.6967 92.256L49.7491 91.2203ZM49.8015 90.1846L50.8372 90.237L50.7848 91.2727L49.7491 91.2203L49.8015 90.1846ZM49.8539 89.1489L50.8896 89.2013L50.8372 90.237L49.8015 90.1846L49.8539 89.1489ZM48.3468 98.4179L49.3825 98.4703L49.3301 99.506L48.2944 99.4536L48.3468 98.4179ZM48.2944 99.4536L49.3301 99.506L49.2778 100.542L48.242 100.489L48.2944 99.4536ZM49.3301 99.506L50.3658 99.5584L50.3135 100.594L49.2778 100.542L49.3301 99.506ZM50.0634 85.006L51.0991 85.0584L51.0467 86.0941L50.011 86.0417L50.0634 85.006ZM49.0276 84.9537L50.0634 85.006L50.011 86.0417L48.9753 85.9894L49.0276 84.9537ZM48.9753 85.9894L50.011 86.0417L49.9586 87.0775L48.9229 87.0251L48.9753 85.9894ZM62.4889 85.6344L63.5246 85.6867L63.4722 86.7224L62.4365 86.6701L62.4889 85.6344ZM62.4365 86.6701L63.4722 86.7224L63.4199 87.7582L62.3841 87.7058L62.4365 86.6701ZM62.3841 87.7058L63.4199 87.7582L63.3675 88.7939L62.3318 88.7415L62.3841 87.7058ZM62.3318 88.7415L63.3675 88.7939L63.3151 89.8296L62.2794 89.7772L62.3318 88.7415ZM62.2794 89.7772L63.3151 89.8296L63.2627 90.8653L62.227 90.8129L62.2794 89.7772ZM62.227 90.8129L63.2627 90.8653L63.2104 91.901L62.1747 91.8486L62.227 90.8129ZM62.1747 91.8486L63.2104 91.901L63.158 92.9367L62.1223 92.8844L62.1747 91.8486ZM62.1223 92.8844L63.158 92.9367L63.1056 93.9724L62.0699 93.9201L62.1223 92.8844ZM62.0699 93.9201L63.1056 93.9724L63.0532 95.0082L62.0175 94.9558L62.0699 93.9201ZM62.0175 94.9558L63.0532 95.0082L63.0009 96.0439L61.9652 95.9915L62.0175 94.9558ZM61.9652 95.9915L63.0009 96.0439L62.9485 97.0796L61.9128 97.0272L61.9652 95.9915ZM61.9128 97.0272L62.9485 97.0796L62.8961 98.1153L61.8604 98.0629L61.9128 97.0272ZM61.8604 98.0629L62.8961 98.1153L62.8438 99.151L61.808 99.0986L61.8604 98.0629ZM61.808 99.0986L62.8438 99.151L62.7914 100.187L61.7557 100.134L61.808 99.0986ZM61.7557 100.134L62.7914 100.187L62.739 101.222L61.7033 101.17L61.7557 100.134ZM60.7199 100.082L61.7557 100.134L61.7033 101.17L60.6676 101.118L60.7199 100.082ZM60.7723 99.0463L61.808 99.0986L61.7557 100.134L60.7199 100.082L60.7723 99.0463ZM60.8247 98.0105L61.8604 98.0629L61.808 99.0986L60.7723 99.0463L60.8247 98.0105ZM61.4008 86.6177L62.4365 86.6701L62.3841 87.7058L61.3484 87.6534L61.4008 86.6177ZM61.4532 85.582L62.4889 85.6344L62.4365 86.6701L61.4008 86.6177L61.4532 85.582ZM61.3484 87.6534L62.3841 87.7058L62.3318 88.7415L61.2961 88.6891L61.3484 87.6534ZM61.2961 88.6891L62.3318 88.7415L62.2794 89.7772L61.2437 89.7248L61.2961 88.6891ZM61.2437 89.7248L62.2794 89.7772L62.227 90.8129L61.1913 90.7606L61.2437 89.7248ZM61.1913 90.7606L62.227 90.8129L62.1747 91.8486L61.1389 91.7963L61.1913 90.7606ZM61.1389 91.7963L62.1747 91.8486L62.1223 92.8844L61.0866 92.832L61.1389 91.7963ZM61.0866 92.832L62.1223 92.8844L62.0699 93.9201L61.0342 93.8677L61.0866 92.832ZM61.0342 93.8677L62.0699 93.9201L62.0175 94.9558L60.9818 94.9034L61.0342 93.8677ZM60.9818 94.9034L62.0175 94.9558L61.9652 95.9915L60.9294 95.9391L60.9818 94.9034ZM60.9294 95.9391L61.9652 95.9915L61.9128 97.0272L60.8771 96.9748L60.9294 95.9391ZM60.8771 96.9748L61.9128 97.0272L61.8604 98.0629L60.8247 98.0105L60.8771 96.9748ZM62.7914 100.187L63.8271 100.239L63.7747 101.275L62.739 101.222L62.7914 100.187ZM62.8438 99.151L63.8795 99.2034L63.8271 100.239L62.7914 100.187L62.8438 99.151ZM62.8961 98.1153L63.9318 98.1677L63.8795 99.2034L62.8438 99.151L62.8961 98.1153ZM62.9485 97.0796L63.9842 97.132L63.9318 98.1677L62.8961 98.1153L62.9485 97.0796ZM63.0532 95.0082L64.089 95.0605L64.0366 96.0962L63.0009 96.0439L63.0532 95.0082ZM63.1056 93.9724L64.1413 94.0248L64.089 95.0605L63.0532 95.0082L63.1056 93.9724ZM63.158 92.9367L64.1937 92.9891L64.1413 94.0248L63.1056 93.9724L63.158 92.9367ZM63.2104 91.901L64.2461 91.9534L64.1937 92.9891L63.158 92.9367L63.2104 91.901ZM63.2627 90.8653L64.2985 90.9177L64.2461 91.9534L63.2104 91.901L63.2627 90.8653ZM63.3151 89.8296L64.3508 89.882L64.2985 90.9177L63.2627 90.8653L63.3151 89.8296ZM63.5246 85.6867L64.5603 85.7391L64.5079 86.7748L63.4722 86.7224L63.5246 85.6867ZM63.4722 86.7224L64.5079 86.7748L64.4556 87.8105L63.4199 87.7582L63.4722 86.7224ZM63.4199 87.7582L64.4556 87.8105L64.4032 88.8462L63.3675 88.7939L63.4199 87.7582ZM63.3675 88.7939L64.4032 88.8462L64.3508 89.882L63.3151 89.8296L63.3675 88.7939ZM63.0009 96.0439L64.0366 96.0962L63.9842 97.132L62.9485 97.0796L63.0009 96.0439ZM63.8271 100.239L64.8628 100.291L64.8104 101.327L63.7747 101.275L63.8271 100.239ZM64.8628 100.291L65.8985 100.344L65.8461 101.38L64.8104 101.327L64.8628 100.291ZM65.8985 100.344L66.9342 100.396L66.8819 101.432L65.8461 101.38L65.8985 100.344ZM65.9509 99.3081L66.9866 99.3605L66.9342 100.396L65.8985 100.344L65.9509 99.3081ZM66.0033 98.2724L67.039 98.3248L66.9866 99.3605L65.9509 99.3081L66.0033 98.2724ZM64.9676 98.22L66.0033 98.2724L65.9509 99.3081L64.9152 99.2558L64.9676 98.22ZM64.9152 99.2558L65.9509 99.3081L65.8985 100.344L64.8628 100.291L64.9152 99.2558ZM63.8795 99.2034L64.9152 99.2558L64.8628 100.291L63.8271 100.239L63.8795 99.2034ZM63.9318 98.1677L64.9676 98.22L64.9152 99.2558L63.8795 99.2034L63.9318 98.1677ZM67.039 98.3248L68.0747 98.3772L68.0223 99.4129L66.9866 99.3605L67.039 98.3248ZM66.9866 99.3605L68.0223 99.4129L67.9699 100.449L66.9342 100.396L66.9866 99.3605ZM66.9342 100.396L67.9699 100.449L67.9176 101.484L66.8819 101.432L66.9342 100.396ZM67.9699 100.449L69.0057 100.501L68.9533 101.537L67.9176 101.484L67.9699 100.449ZM68.0223 99.4129L69.058 99.4653L69.0057 100.501L67.9699 100.449L68.0223 99.4129ZM68.0747 98.3772L69.1104 98.4295L69.058 99.4653L68.0223 99.4129L68.0747 98.3772ZM69.1104 98.4295L70.1461 98.4819L70.0937 99.5176L69.058 99.4653L69.1104 98.4295ZM69.058 99.4653L70.0937 99.5176L70.0414 100.553L69.0057 100.501L69.058 99.4653ZM69.0057 100.501L70.0414 100.553L69.989 101.589L68.9533 101.537L69.0057 100.501ZM64.5603 85.7391L65.596 85.7915L65.5437 86.8272L64.5079 86.7748L64.5603 85.7391ZM65.596 85.7915L66.6317 85.8439L66.5794 86.8796L65.5437 86.8272L65.596 85.7915ZM66.6317 85.8439L67.6675 85.8962L67.6151 86.9319L66.5794 86.8796L66.6317 85.8439ZM67.6675 85.8962L68.7032 85.9486L68.6508 86.9843L67.6151 86.9319L67.6675 85.8962ZM68.7032 85.9486L69.7389 86.001L69.6865 87.0367L68.6508 86.9843L68.7032 85.9486ZM69.7389 86.001L70.7746 86.0533L70.7222 87.0891L69.6865 87.0367L69.7389 86.001ZM69.6865 87.0367L70.7222 87.0891L70.6699 88.1248L69.6341 88.0724L69.6865 87.0367ZM69.6341 88.0724L70.6699 88.1248L70.6175 89.1605L69.5818 89.1081L69.6341 88.0724ZM68.5984 88.02L69.6341 88.0724L69.5818 89.1081L68.5461 89.0557L68.5984 88.02ZM67.5627 87.9677L68.5984 88.02L68.5461 89.0557L67.5103 89.0034L67.5627 87.9677ZM66.527 87.9153L67.5627 87.9677L67.5103 89.0034L66.4746 88.951L66.527 87.9153ZM65.4913 87.8629L66.527 87.9153L66.4746 88.951L65.4389 88.8986L65.4913 87.8629ZM65.5437 86.8272L66.5794 86.8796L66.527 87.9153L65.4913 87.8629L65.5437 86.8272ZM64.5079 86.7748L65.5437 86.8272L65.4913 87.8629L64.4556 87.8105L64.5079 86.7748ZM64.4556 87.8105L65.4913 87.8629L65.4389 88.8986L64.4032 88.8462L64.4556 87.8105ZM66.5794 86.8796L67.6151 86.9319L67.5627 87.9677L66.527 87.9153L66.5794 86.8796ZM67.6151 86.9319L68.6508 86.9843L68.5984 88.02L67.5627 87.9677L67.6151 86.9319ZM68.6508 86.9843L69.6865 87.0367L69.6341 88.0724L68.5984 88.02L68.6508 86.9843ZM64.2461 91.9534L65.2818 92.0058L65.2294 93.0415L64.1937 92.9891L64.2461 91.9534ZM64.1937 92.9891L65.2294 93.0415L65.177 94.0772L64.1413 94.0248L64.1937 92.9891ZM64.1413 94.0248L65.177 94.0772L65.1247 95.1129L64.089 95.0605L64.1413 94.0248ZM65.177 94.0772L66.2128 94.1296L66.1604 95.1653L65.1247 95.1129L65.177 94.0772ZM65.2294 93.0415L66.2651 93.0938L66.2128 94.1296L65.177 94.0772L65.2294 93.0415ZM65.2818 92.0058L66.3175 92.0581L66.2651 93.0938L65.2294 93.0415L65.2818 92.0058ZM66.3175 92.0581L67.3532 92.1105L67.3008 93.1462L66.2651 93.0938L66.3175 92.0581ZM66.2651 93.0938L67.3008 93.1462L67.2485 94.1819L66.2128 94.1296L66.2651 93.0938ZM67.3008 93.1462L68.3366 93.1986L68.2842 94.2343L67.2485 94.1819L67.3008 93.1462ZM67.3532 92.1105L68.3889 92.1629L68.3366 93.1986L67.3008 93.1462L67.3532 92.1105ZM67.2485 94.1819L68.2842 94.2343L68.2318 95.27L67.1961 95.2176L67.2485 94.1819ZM66.2128 94.1296L67.2485 94.1819L67.1961 95.2176L66.1604 95.1653L66.2128 94.1296ZM68.3889 92.1629L69.4246 92.2153L69.3723 93.251L68.3366 93.1986L68.3889 92.1629ZM68.3366 93.1986L69.3723 93.251L69.3199 94.2867L68.2842 94.2343L68.3366 93.1986ZM68.2842 94.2343L69.3199 94.2867L69.2675 95.3224L68.2318 95.27L68.2842 94.2343ZM74.9124 86.2626L75.9481 86.315L75.8957 87.3507L74.86 87.2983L74.9124 86.2626ZM75.9481 86.315L76.9838 86.3673L76.9315 87.403L75.8957 87.3507L75.9481 86.315ZM76.9838 86.3673L78.0195 86.4197L77.9672 87.4554L76.9315 87.403L76.9838 86.3673ZM78.0195 86.4197L79.0553 86.4721L79.0029 87.5078L77.9672 87.4554L78.0195 86.4197ZM79.0553 86.4721L80.091 86.5245L80.0386 87.5602L79.0029 87.5078L79.0553 86.4721ZM80.091 86.5245L81.1267 86.5768L81.0743 87.6125L80.0386 87.5602L80.091 86.5245ZM80.0386 87.5602L81.0743 87.6125L81.0219 88.6483L79.9862 88.5959L80.0386 87.5602ZM81.0743 87.6125L82.11 87.6649L82.0576 88.7006L81.0219 88.6483L81.0743 87.6125ZM79.0029 87.5078L80.0386 87.5602L79.9862 88.5959L78.9505 88.5435L79.0029 87.5078ZM77.9672 87.4554L79.0029 87.5078L78.9505 88.5435L77.9148 88.4911L77.9672 87.4554ZM76.9315 87.403L77.9672 87.4554L77.9148 88.4911L76.8791 88.4388L76.9315 87.403ZM75.8957 87.3507L76.9315 87.403L76.8791 88.4388L75.8434 88.3864L75.8957 87.3507ZM74.86 87.2983L75.8957 87.3507L75.8434 88.3864L74.8077 88.334L74.86 87.2983ZM73.7719 88.2816L74.8077 88.334L74.7553 89.3697L73.7196 89.3174L73.7719 88.2816ZM73.8243 87.2459L74.86 87.2983L74.8077 88.334L73.7719 88.2816L73.8243 87.2459ZM72.7362 88.2293L73.7719 88.2816L73.7196 89.3174L72.6839 89.265L72.7362 88.2293ZM74.8077 88.334L75.8434 88.3864L75.791 89.4221L74.7553 89.3697L74.8077 88.334ZM75.8434 88.3864L76.8791 88.4388L76.8267 89.4745L75.791 89.4221L75.8434 88.3864ZM76.8791 88.4388L77.9148 88.4911L77.8624 89.5268L76.8267 89.4745L76.8791 88.4388ZM77.9148 88.4911L78.9505 88.5435L78.8981 89.5792L77.8624 89.5268L77.9148 88.4911ZM78.9505 88.5435L79.9862 88.5959L79.9338 89.6316L78.8981 89.5792L78.9505 88.5435ZM79.9862 88.5959L81.0219 88.6483L80.9696 89.684L79.9338 89.6316L79.9862 88.5959ZM81.0219 88.6483L82.0576 88.7006L82.0053 89.7363L80.9696 89.684L81.0219 88.6483ZM82.0576 88.7006L83.0934 88.753L83.041 89.7887L82.0053 89.7363L82.0576 88.7006ZM82.0053 89.7363L83.041 89.7887L82.9886 90.8244L81.9529 90.7721L82.0053 89.7363ZM80.9696 89.684L82.0053 89.7363L81.9529 90.7721L80.9172 90.7197L80.9696 89.684ZM79.9338 89.6316L80.9696 89.684L80.9172 90.7197L79.8815 90.6673L79.9338 89.6316ZM78.8981 89.5792L79.9338 89.6316L79.8815 90.6673L78.8458 90.6149L78.8981 89.5792ZM79.8815 90.6673L80.9172 90.7197L80.8648 91.7554L79.8291 91.703L79.8815 90.6673ZM81.9529 90.7721L82.9886 90.8244L82.9362 91.8601L81.9005 91.8078L81.9529 90.7721ZM80.9172 90.7197L81.9529 90.7721L81.9005 91.8078L80.8648 91.7554L80.9172 90.7197ZM81.6387 96.9863L82.6744 97.0387L82.622 98.0744L81.5863 98.0221L81.6387 96.9863ZM81.5863 98.0221L82.622 98.0744L82.5696 99.1101L81.5339 99.0578L81.5863 98.0221ZM81.5339 99.0578L82.5696 99.1101L82.5173 100.146L81.4815 100.093L81.5339 99.0578ZM80.4982 99.0054L81.5339 99.0578L81.4815 100.093L80.4458 100.041L80.4982 99.0054ZM80.5506 97.9697L81.5863 98.0221L81.5339 99.0578L80.4982 99.0054L80.5506 97.9697ZM80.6029 96.934L81.6387 96.9863L81.5863 98.0221L80.5506 97.9697L80.6029 96.934ZM79.5672 96.8816L80.6029 96.934L80.5506 97.9697L79.5149 97.9173L79.5672 96.8816ZM79.5149 97.9173L80.5506 97.9697L80.4982 99.0054L79.4625 98.953L79.5149 97.9173ZM78.4791 97.8649L79.5149 97.9173L79.4625 98.953L78.4268 98.9006L78.4791 97.8649ZM79.4625 98.953L80.4982 99.0054L80.4458 100.041L79.4101 99.9887L79.4625 98.953ZM80.4458 100.041L81.4815 100.093L81.4292 101.129L80.3935 101.077L80.4458 100.041ZM79.4101 99.9887L80.4458 100.041L80.3935 101.077L79.3577 101.024L79.4101 99.9887ZM78.4268 98.9006L79.4625 98.953L79.4101 99.9887L78.3744 99.9364L78.4268 98.9006ZM78.3744 99.9364L79.4101 99.9887L79.3577 101.024L78.322 100.972L78.3744 99.9364ZM79.3577 101.024L80.3935 101.077L80.3411 102.113L79.3054 102.06L79.3577 101.024ZM78.322 100.972L79.3577 101.024L79.3054 102.06L78.2697 102.008L78.322 100.972ZM77.2863 100.92L78.322 100.972L78.2697 102.008L77.2339 101.955L77.2863 100.92ZM76.2506 100.867L77.2863 100.92L77.2339 101.955L76.1982 101.903L76.2506 100.867ZM75.2149 100.815L76.2506 100.867L76.1982 101.903L75.1625 101.851L75.2149 100.815ZM74.1792 100.763L75.2149 100.815L75.1625 101.851L74.1268 101.798L74.1792 100.763ZM74.2315 99.7269L75.2673 99.7792L75.2149 100.815L74.1792 100.763L74.2315 99.7269ZM75.2673 99.7792L76.303 99.8316L76.2506 100.867L75.2149 100.815L75.2673 99.7792ZM75.3196 98.7435L76.3553 98.7959L76.303 99.8316L75.2673 99.7792L75.3196 98.7435ZM76.3553 98.7959L77.3911 98.8483L77.3387 99.884L76.303 99.8316L76.3553 98.7959ZM77.3911 98.8483L78.4268 98.9006L78.3744 99.9364L77.3387 99.884L77.3911 98.8483ZM77.3387 99.884L78.3744 99.9364L78.322 100.972L77.2863 100.92L77.3387 99.884ZM76.303 99.8316L77.3387 99.884L77.2863 100.92L76.2506 100.867L76.303 99.8316ZM73.1958 99.6745L74.2315 99.7269L74.1792 100.763L73.1435 100.71L73.1958 99.6745ZM74.2839 98.6911L75.3196 98.7435L75.2673 99.7792L74.2315 99.7269L74.2839 98.6911ZM75.372 97.7078L76.4077 97.7602L76.3553 98.7959L75.3196 98.7435L75.372 97.7078ZM74.3363 97.6554L75.372 97.7078L75.3196 98.7435L74.2839 98.6911L74.3363 97.6554ZM73.3006 97.6031L74.3363 97.6554L74.2839 98.6911L73.2482 98.6388L73.3006 97.6031ZM73.2482 98.6388L74.2839 98.6911L74.2315 99.7269L73.1958 99.6745L73.2482 98.6388ZM72.2125 98.5864L73.2482 98.6388L73.1958 99.6745L72.1601 99.6221L72.2125 98.5864ZM72.2649 97.5507L73.3006 97.6031L73.2482 98.6388L72.2125 98.5864L72.2649 97.5507ZM72.3172 96.515L73.353 96.5673L73.3006 97.6031L72.2649 97.5507L72.3172 96.515ZM72.3696 95.4793L73.4053 95.5316L73.353 96.5673L72.3172 96.515L72.3696 95.4793ZM72.422 94.4435L73.4577 94.4959L73.4053 95.5316L72.3696 95.4793L72.422 94.4435ZM72.4744 93.4078L73.5101 93.4602L73.4577 94.4959L72.422 94.4435L72.4744 93.4078ZM72.5267 92.3721L73.5624 92.4245L73.5101 93.4602L72.4744 93.4078L72.5267 92.3721ZM72.5791 91.3364L73.6148 91.3888L73.5624 92.4245L72.5267 92.3721L72.5791 91.3364ZM72.6315 90.3007L73.6672 90.3531L73.6148 91.3888L72.5791 91.3364L72.6315 90.3007ZM72.6839 89.265L73.7196 89.3174L73.6672 90.3531L72.6315 90.3007L72.6839 89.265ZM73.7196 89.3174L74.7553 89.3697L74.7029 90.4054L73.6672 90.3531L73.7196 89.3174ZM74.7553 89.3697L75.791 89.4221L75.7386 90.4578L74.7029 90.4054L74.7553 89.3697ZM75.791 89.4221L76.8267 89.4745L76.7743 90.5102L75.7386 90.4578L75.791 89.4221ZM74.7029 90.4054L75.7386 90.4578L75.6862 91.4935L74.6505 91.4412L74.7029 90.4054ZM74.6505 91.4412L75.6862 91.4935L75.6339 92.5292L74.5982 92.4769L74.6505 91.4412ZM74.5982 92.4769L75.6339 92.5292L75.5815 93.565L74.5458 93.5126L74.5982 92.4769ZM74.5458 93.5126L75.5815 93.565L75.5291 94.6007L74.4934 94.5483L74.5458 93.5126ZM74.4934 94.5483L75.5291 94.6007L75.4768 95.6364L74.441 95.584L74.4934 94.5483ZM74.441 95.584L75.4768 95.6364L75.4244 96.6721L74.3887 96.6197L74.441 95.584ZM74.3887 96.6197L75.4244 96.6721L75.372 97.7078L74.3363 97.6554L74.3887 96.6197ZM73.353 96.5673L74.3887 96.6197L74.3363 97.6554L73.3006 97.6031L73.353 96.5673ZM73.4053 95.5316L74.441 95.584L74.3887 96.6197L73.353 96.5673L73.4053 95.5316ZM73.4577 94.4959L74.4934 94.5483L74.441 95.584L73.4053 95.5316L73.4577 94.4959ZM73.5101 93.4602L74.5458 93.5126L74.4934 94.5483L73.4577 94.4959L73.5101 93.4602ZM73.5624 92.4245L74.5982 92.4769L74.5458 93.5126L73.5101 93.4602L73.5624 92.4245ZM73.6148 91.3888L74.6505 91.4412L74.5982 92.4769L73.5624 92.4245L73.6148 91.3888ZM73.6672 90.3531L74.7029 90.4054L74.6505 91.4412L73.6148 91.3888L73.6672 90.3531ZM85.2665 86.7862L86.3022 86.8385L86.2498 87.8743L85.2141 87.8219L85.2665 86.7862ZM86.3022 86.8385L87.3379 86.8909L87.2856 87.9266L86.2498 87.8743L86.3022 86.8385ZM86.2498 87.8743L87.2856 87.9266L87.2332 88.9623L86.1975 88.91L86.2498 87.8743ZM87.2856 87.9266L88.3213 87.979L88.2689 89.0147L87.2332 88.9623L87.2856 87.9266ZM87.2332 88.9623L88.2689 89.0147L88.2165 90.0504L87.1808 89.9981L87.2332 88.9623ZM87.3379 86.8909L88.3736 86.9433L88.3213 87.979L87.2856 87.9266L87.3379 86.8909ZM85.2141 87.8219L86.2498 87.8743L86.1975 88.91L85.1618 88.8576L85.2141 87.8219ZM85.1618 88.8576L86.1975 88.91L86.1451 89.9457L85.1094 89.8933L85.1618 88.8576ZM85.1094 89.8933L86.1451 89.9457L86.0927 90.9814L85.057 90.929L85.1094 89.8933ZM85.057 90.929L86.0927 90.9814L86.0403 92.0171L85.0046 91.9647L85.057 90.929ZM86.0927 90.9814L87.1284 91.0338L87.0761 92.0695L86.0403 92.0171L86.0927 90.9814ZM86.1451 89.9457L87.1808 89.9981L87.1284 91.0338L86.0927 90.9814L86.1451 89.9457ZM87.1808 89.9981L88.2165 90.0504L88.1641 91.0861L87.1284 91.0338L87.1808 89.9981ZM86.1975 88.91L87.2332 88.9623L87.1808 89.9981L86.1451 89.9457L86.1975 88.91ZM87.1284 91.0338L88.1641 91.0861L88.1118 92.1219L87.0761 92.0695L87.1284 91.0338ZM87.0761 92.0695L88.1118 92.1219L88.0594 93.1576L87.0237 93.1052L87.0761 92.0695ZM86.0403 92.0171L87.0761 92.0695L87.0237 93.1052L85.988 93.0528L86.0403 92.0171ZM85.988 93.0528L87.0237 93.1052L86.9713 94.1409L85.9356 94.0885L85.988 93.0528ZM85.0046 91.9647L86.0403 92.0171L85.988 93.0528L84.9523 93.0004L85.0046 91.9647ZM84.9523 93.0004L85.988 93.0528L85.9356 94.0885L84.8999 94.0362L84.9523 93.0004ZM84.8999 94.0362L85.9356 94.0885L85.8832 95.1243L84.8475 95.0719L84.8999 94.0362ZM84.8475 95.0719L85.8832 95.1243L85.8309 96.16L84.7951 96.1076L84.8475 95.0719ZM84.7951 96.1076L85.8309 96.16L85.7785 97.1957L84.7428 97.1433L84.7951 96.1076ZM84.7428 97.1433L85.7785 97.1957L85.7261 98.2314L84.6904 98.179L84.7428 97.1433ZM84.6904 98.179L85.7261 98.2314L85.6737 99.2671L84.638 99.2147L84.6904 98.179ZM84.5333 101.286L85.569 101.339L85.5166 102.374L84.4809 102.322L84.5333 101.286ZM84.5856 100.25L85.6214 100.303L85.569 101.339L84.5333 101.286L84.5856 100.25ZM84.638 99.2147L85.6737 99.2671L85.6214 100.303L84.5856 100.25L84.638 99.2147ZM85.6737 99.2671L86.7094 99.3195L86.6571 100.355L85.6214 100.303L85.6737 99.2671ZM86.7094 99.3195L87.7452 99.3719L87.6928 100.408L86.6571 100.355L86.7094 99.3195ZM86.6571 100.355L87.6928 100.408L87.6404 101.443L86.6047 101.391L86.6571 100.355ZM86.6047 101.391L87.6404 101.443L87.588 102.479L86.5523 102.427L86.6047 101.391ZM85.569 101.339L86.6047 101.391L86.5523 102.427L85.5166 102.374L85.569 101.339ZM85.6214 100.303L86.6571 100.355L86.6047 101.391L85.569 101.339L85.6214 100.303ZM90.9047 98.4933L91.9404 98.5456L91.888 99.5813L90.8523 99.529L90.9047 98.4933ZM90.8523 99.529L91.888 99.5813L91.8356 100.617L90.7999 100.565L90.8523 99.529ZM90.7999 100.565L91.8356 100.617L91.7833 101.653L90.7476 101.6L90.7999 100.565ZM90.7476 101.6L91.7833 101.653L91.7309 102.688L90.6952 102.636L90.7476 101.6ZM91.7833 101.653L92.819 101.705L92.7666 102.741L91.7309 102.688L91.7833 101.653ZM92.819 101.705L93.8547 101.758L93.8023 102.793L92.7666 102.741L92.819 101.705ZM92.8714 100.669L93.9071 100.722L93.8547 101.758L92.819 101.705L92.8714 100.669ZM92.9237 99.6337L93.9594 99.6861L93.9071 100.722L92.8714 100.669L92.9237 99.6337ZM91.888 99.5813L92.9237 99.6337L92.8714 100.669L91.8356 100.617L91.888 99.5813ZM91.8356 100.617L92.8714 100.669L92.819 101.705L91.7833 101.653L91.8356 100.617ZM91.9404 98.5456L92.9761 98.598L92.9237 99.6337L91.888 99.5813L91.9404 98.5456ZM92.9761 98.598L94.0118 98.6504L93.9594 99.6861L92.9237 99.6337L92.9761 98.598ZM93.0285 97.5623L94.0642 97.6147L94.0118 98.6504L92.9761 98.598L93.0285 97.5623ZM93.0809 96.5266L94.1166 96.579L94.0642 97.6147L93.0285 97.5623L93.0809 96.5266ZM92.0451 96.4742L93.0809 96.5266L93.0285 97.5623L91.9928 97.5099L92.0451 96.4742ZM91.9928 97.5099L93.0285 97.5623L92.9761 98.598L91.9404 98.5456L91.9928 97.5099ZM90.957 97.4575L91.9928 97.5099L91.9404 98.5456L90.9047 98.4933L90.957 97.4575ZM91.0094 96.4218L92.0451 96.4742L91.9928 97.5099L90.957 97.4575L91.0094 96.4218ZM89.9737 96.3695L91.0094 96.4218L90.957 97.4575L89.9213 97.4052L89.9737 96.3695ZM91.0618 95.3861L92.0975 95.4385L92.0451 96.4742L91.0094 96.4218L91.0618 95.3861ZM92.0975 95.4385L93.1332 95.4909L93.0809 96.5266L92.0451 96.4742L92.0975 95.4385ZM90.0261 95.3337L91.0618 95.3861L91.0094 96.4218L89.9737 96.3695L90.0261 95.3337ZM88.9904 95.2814L90.0261 95.3337L89.9737 96.3695L88.938 96.3171L88.9904 95.2814ZM87.9547 95.229L88.9904 95.2814L88.938 96.3171L87.9023 96.2647L87.9547 95.229ZM86.7618 98.2838L87.7975 98.3361L87.7452 99.3719L86.7094 99.3195L86.7618 98.2838ZM86.8142 97.2481L87.8499 97.3004L87.7975 98.3361L86.7618 98.2838L86.8142 97.2481ZM86.8666 96.2123L87.9023 96.2647L87.8499 97.3004L86.8142 97.2481L86.8666 96.2123ZM86.9189 95.1766L87.9547 95.229L87.9023 96.2647L86.8666 96.2123L86.9189 95.1766ZM85.8832 95.1243L86.9189 95.1766L86.8666 96.2123L85.8309 96.16L85.8832 95.1243ZM85.8309 96.16L86.8666 96.2123L86.8142 97.2481L85.7785 97.1957L85.8309 96.16ZM85.7785 97.1957L86.8142 97.2481L86.7618 98.2838L85.7261 98.2314L85.7785 97.1957ZM85.7261 98.2314L86.7618 98.2838L86.7094 99.3195L85.6737 99.2671L85.7261 98.2314ZM85.9356 94.0885L86.9713 94.1409L86.9189 95.1766L85.8832 95.1243L85.9356 94.0885ZM86.9713 94.1409L88.007 94.1933L87.9547 95.229L86.9189 95.1766L86.9713 94.1409ZM88.007 94.1933L89.0427 94.2457L88.9904 95.2814L87.9547 95.229L88.007 94.1933ZM89.0427 94.2457L90.0785 94.298L90.0261 95.3337L88.9904 95.2814L89.0427 94.2457ZM90.0785 94.298L91.1142 94.3504L91.0618 95.3861L90.0261 95.3337L90.0785 94.298ZM91.1142 94.3504L92.1499 94.4028L92.0975 95.4385L91.0618 95.3861L91.1142 94.3504ZM90.1308 93.2623L91.1665 93.3147L91.1142 94.3504L90.0785 94.298L90.1308 93.2623ZM89.0951 93.2099L90.1308 93.2623L90.0785 94.298L89.0427 94.2457L89.0951 93.2099ZM88.0594 93.1576L89.0951 93.2099L89.0427 94.2457L88.007 94.1933L88.0594 93.1576ZM87.0237 93.1052L88.0594 93.1576L88.007 94.1933L86.9713 94.1409L87.0237 93.1052ZM91.1665 93.3147L92.2023 93.3671L92.1499 94.4028L91.1142 94.3504L91.1665 93.3147ZM92.2023 93.3671L93.238 93.4194L93.1856 94.4552L92.1499 94.4028L92.2023 93.3671ZM91.2189 92.279L92.2546 92.3314L92.2023 93.3671L91.1665 93.3147L91.2189 92.279ZM90.1832 92.2266L91.2189 92.279L91.1665 93.3147L90.1308 93.2623L90.1832 92.2266ZM92.2546 92.3314L93.2903 92.3837L93.238 93.4194L92.2023 93.3671L92.2546 92.3314ZM93.2903 92.3837L94.3261 92.4361L94.2737 93.4718L93.238 93.4194L93.2903 92.3837ZM93.3427 91.348L94.3784 91.4004L94.3261 92.4361L93.2903 92.3837L93.3427 91.348ZM93.3951 90.3123L94.4308 90.3647L94.3784 91.4004L93.3427 91.348L93.3951 90.3123ZM93.4475 89.2766L94.4832 89.329L94.4308 90.3647L93.3951 90.3123L93.4475 89.2766ZM91.4808 87.1004L92.5165 87.1528L92.4641 88.1885L91.4284 88.1361L91.4808 87.1004ZM92.5165 87.1528L93.5522 87.2052L93.4998 88.2409L92.4641 88.1885L92.5165 87.1528ZM93.5522 87.2052L94.5879 87.2575L94.5356 88.2932L93.4998 88.2409L93.5522 87.2052ZM93.4998 88.2409L94.5356 88.2932L94.4832 89.329L93.4475 89.2766L93.4998 88.2409ZM92.4641 88.1885L93.4998 88.2409L93.4475 89.2766L92.4118 89.2242L92.4641 88.1885ZM91.4284 88.1361L92.4641 88.1885L92.4118 89.2242L91.376 89.1718L91.4284 88.1361ZM91.376 89.1718L92.4118 89.2242L92.3594 90.2599L91.3237 90.2075L91.376 89.1718ZM91.3237 90.2075L92.3594 90.2599L92.307 91.2956L91.2713 91.2433L91.3237 90.2075ZM91.2713 91.2433L92.307 91.2956L92.2546 92.3314L91.2189 92.279L91.2713 91.2433ZM92.307 91.2956L93.3427 91.348L93.2903 92.3837L92.2546 92.3314L92.307 91.2956ZM92.3594 90.2599L93.3951 90.3123L93.3427 91.348L92.307 91.2956L92.3594 90.2599ZM92.4118 89.2242L93.4475 89.2766L93.3951 90.3123L92.3594 90.2599L92.4118 89.2242ZM104.94 87.781L105.976 87.8334L105.923 88.8691L104.888 88.8167L104.94 87.781ZM103.904 87.7286L104.94 87.781L104.888 88.8167L103.852 88.7643L103.904 87.7286ZM102.869 87.6763L103.904 87.7286L103.852 88.7643L102.816 88.712L102.869 87.6763ZM100.797 87.5715L101.833 87.6239L101.78 88.6596L100.745 88.6072L100.797 87.5715ZM99.7614 87.5191L100.797 87.5715L100.745 88.6072L99.7091 88.5549L99.7614 87.5191ZM98.7257 87.4668L99.7614 87.5191L99.7091 88.5549L98.6734 88.5025L98.7257 87.4668ZM101.833 87.6239L102.869 87.6763L102.816 88.712L101.78 88.6596L101.833 87.6239ZM101.78 88.6596L102.816 88.712L102.764 89.7477L101.728 89.6953L101.78 88.6596ZM102.816 88.712L103.852 88.7643L103.8 89.8001L102.764 89.7477L102.816 88.712ZM103.852 88.7643L104.888 88.8167L104.835 89.8524L103.8 89.8001L103.852 88.7643ZM104.888 88.8167L105.923 88.8691L105.871 89.9048L104.835 89.8524L104.888 88.8167ZM105.923 88.8691L106.959 88.9215L106.907 89.9572L105.871 89.9048L105.923 88.8691ZM100.745 88.6072L101.78 88.6596L101.728 89.6953L100.692 89.6429L100.745 88.6072ZM99.7091 88.5549L100.745 88.6072L100.692 89.6429L99.6567 89.5906L99.7091 88.5549ZM98.6734 88.5025L99.7091 88.5549L99.6567 89.5906L98.621 89.5382L98.6734 88.5025ZM97.6376 88.4501L98.6734 88.5025L98.621 89.5382L97.5853 89.4858L97.6376 88.4501ZM96.5495 89.4334L97.5853 89.4858L97.5329 90.5215L96.4972 90.4692L96.5495 89.4334ZM97.5853 89.4858L98.621 89.5382L98.5686 90.5739L97.5329 90.5215L97.5853 89.4858ZM98.621 89.5382L99.6567 89.5906L99.6043 90.6263L98.5686 90.5739L98.621 89.5382ZM99.6567 89.5906L100.692 89.6429L100.64 90.6787L99.6043 90.6263L99.6567 89.5906ZM100.692 89.6429L101.728 89.6953L101.676 90.731L100.64 90.6787L100.692 89.6429ZM101.728 89.6953L102.764 89.7477L102.711 90.7834L101.676 90.731L101.728 89.6953ZM102.764 89.7477L103.8 89.8001L103.747 90.8358L102.711 90.7834L102.764 89.7477ZM103.8 89.8001L104.835 89.8524L104.783 90.8882L103.747 90.8358L103.8 89.8001ZM104.835 89.8524L105.871 89.9048L105.819 90.9405L104.783 90.8882L104.835 89.8524ZM105.871 89.9048L106.907 89.9572L106.854 90.9929L105.819 90.9405L105.871 89.9048ZM106.907 89.9572L107.942 90.0096L107.89 91.0453L106.854 90.9929L106.907 89.9572ZM106.854 90.9929L107.89 91.0453L107.838 92.081L106.802 92.0286L106.854 90.9929ZM106.802 92.0286L107.838 92.081L107.785 93.1167L106.75 93.0643L106.802 92.0286ZM105.766 91.9762L106.802 92.0286L106.75 93.0643L105.714 93.012L105.766 91.9762ZM105.819 90.9405L106.854 90.9929L106.802 92.0286L105.766 91.9762L105.819 90.9405ZM104.731 91.9239L105.766 91.9762L105.714 93.012L104.678 92.9596L104.731 91.9239ZM104.783 90.8882L105.819 90.9405L105.766 91.9762L104.731 91.9239L104.783 90.8882ZM103.747 90.8358L104.783 90.8882L104.731 91.9239L103.695 91.8715L103.747 90.8358ZM99.6043 90.6263L100.64 90.6787L100.588 91.7144L99.5519 91.662L99.6043 90.6263ZM98.5686 90.5739L99.6043 90.6263L99.5519 91.662L98.5162 91.6096L98.5686 90.5739ZM97.5329 90.5215L98.5686 90.5739L98.5162 91.6096L97.4805 91.5572L97.5329 90.5215ZM96.4972 90.4692L97.5329 90.5215L97.4805 91.5572L96.4448 91.5049L96.4972 90.4692ZM96.4448 91.5049L97.4805 91.5572L97.4281 92.593L96.3924 92.5406L96.4448 91.5049ZM97.4805 91.5572L98.5162 91.6096L98.4639 92.6453L97.4281 92.593L97.4805 91.5572ZM97.4281 92.593L98.4639 92.6453L98.4115 93.681L97.3758 93.6287L97.4281 92.593ZM98.5162 91.6096L99.5519 91.662L99.4996 92.6977L98.4639 92.6453L98.5162 91.6096ZM98.4639 92.6453L99.4996 92.6977L99.4472 93.7334L98.4115 93.681L98.4639 92.6453ZM99.4996 92.6977L100.535 92.7501L100.483 93.7858L99.4472 93.7334L99.4996 92.6977ZM96.3924 92.5406L97.4281 92.593L97.3758 93.6287L96.3401 93.5763L96.3924 92.5406ZM96.3401 93.5763L97.3758 93.6287L97.3234 94.6644L96.2877 94.612L96.3401 93.5763ZM97.3758 93.6287L98.4115 93.681L98.3591 94.7168L97.3234 94.6644L97.3758 93.6287ZM97.3234 94.6644L98.3591 94.7168L98.3067 95.7525L97.271 95.7001L97.3234 94.6644ZM98.3591 94.7168L99.3948 94.7691L99.3424 95.8049L98.3067 95.7525L98.3591 94.7168ZM98.4115 93.681L99.4472 93.7334L99.3948 94.7691L98.3591 94.7168L98.4115 93.681ZM99.4472 93.7334L100.483 93.7858L100.431 94.8215L99.3948 94.7691L99.4472 93.7334ZM99.3948 94.7691L100.431 94.8215L100.378 95.8572L99.3424 95.8049L99.3948 94.7691ZM98.3067 95.7525L99.3424 95.8049L99.2901 96.8406L98.2544 96.7882L98.3067 95.7525ZM99.3424 95.8049L100.378 95.8572L100.326 96.8929L99.2901 96.8406L99.3424 95.8049ZM100.378 95.8572L101.414 95.9096L101.362 96.9453L100.326 96.8929L100.378 95.8572ZM101.414 95.9096L102.45 95.962L102.397 96.9977L101.362 96.9453L101.414 95.9096ZM102.45 95.962L103.485 96.0143L103.433 97.0501L102.397 96.9977L102.45 95.962ZM102.502 94.9263L103.538 94.9786L103.485 96.0143L102.45 95.962L102.502 94.9263ZM103.538 94.9786L104.573 95.031L104.521 96.0667L103.485 96.0143L103.538 94.9786ZM104.573 95.031L105.609 95.0834L105.557 96.1191L104.521 96.0667L104.573 95.031ZM104.626 93.9953L105.661 94.0477L105.609 95.0834L104.573 95.031L104.626 93.9953ZM103.59 93.9429L104.626 93.9953L104.573 95.031L103.538 94.9786L103.59 93.9429ZM102.554 93.8905L103.59 93.9429L103.538 94.9786L102.502 94.9263L102.554 93.8905ZM101.519 93.8382L102.554 93.8905L102.502 94.9263L101.466 94.8739L101.519 93.8382ZM101.466 94.8739L102.502 94.9263L102.45 95.962L101.414 95.9096L101.466 94.8739ZM100.431 94.8215L101.466 94.8739L101.414 95.9096L100.378 95.8572L100.431 94.8215ZM100.483 93.7858L101.519 93.8382L101.466 94.8739L100.431 94.8215L100.483 93.7858ZM105.609 95.0834L106.645 95.1358L106.592 96.1715L105.557 96.1191L105.609 95.0834ZM105.557 96.1191L106.592 96.1715L106.54 97.2072L105.504 97.1548L105.557 96.1191ZM104.521 96.0667L105.557 96.1191L105.504 97.1548L104.469 97.1024L104.521 96.0667ZM104.469 97.1024L105.504 97.1548L105.452 98.1905L104.416 98.1381L104.469 97.1024ZM103.433 97.0501L104.469 97.1024L104.416 98.1381L103.381 98.0858L103.433 97.0501ZM103.485 96.0143L104.521 96.0667L104.469 97.1024L103.433 97.0501L103.485 96.0143ZM105.504 97.1548L106.54 97.2072L106.488 98.2429L105.452 98.1905L105.504 97.1548ZM106.54 97.2072L107.576 97.2596L107.523 98.2953L106.488 98.2429L106.54 97.2072ZM106.592 96.1715L107.628 96.2238L107.576 97.2596L106.54 97.2072L106.592 96.1715ZM106.488 98.2429L107.523 98.2953L107.471 99.331L106.435 99.2786L106.488 98.2429ZM106.435 99.2786L107.471 99.331L107.419 100.367L106.383 100.314L106.435 99.2786ZM106.383 100.314L107.419 100.367L107.366 101.402L106.331 101.35L106.383 100.314ZM105.347 100.262L106.383 100.314L106.331 101.35L105.295 101.298L105.347 100.262ZM105.295 101.298L106.331 101.35L106.278 102.386L105.242 102.333L105.295 101.298ZM104.259 101.245L105.295 101.298L105.242 102.333L104.207 102.281L104.259 101.245ZM104.312 100.21L105.347 100.262L105.295 101.298L104.259 101.245L104.312 100.21ZM103.276 100.157L104.312 100.21L104.259 101.245L103.223 101.193L103.276 100.157ZM103.328 99.1215L104.364 99.1739L104.312 100.21L103.276 100.157L103.328 99.1215ZM104.364 99.1739L105.4 99.2262L105.347 100.262L104.312 100.21L104.364 99.1739ZM104.416 98.1381L105.452 98.1905L105.4 99.2262L104.364 99.1739L104.416 98.1381ZM105.452 98.1905L106.488 98.2429L106.435 99.2786L105.4 99.2262L105.452 98.1905ZM105.4 99.2262L106.435 99.2786L106.383 100.314L105.347 100.262L105.4 99.2262ZM96.1306 97.7192L97.1663 97.7715L97.1139 98.8072L96.0782 98.7549L96.1306 97.7192ZM96.0782 98.7549L97.1139 98.8072L97.0615 99.843L96.0258 99.7906L96.0782 98.7549ZM97.1139 98.8072L98.1496 98.8596L98.0972 99.8953L97.0615 99.843L97.1139 98.8072ZM97.1663 97.7715L98.202 97.8239L98.1496 98.8596L97.1139 98.8072L97.1663 97.7715ZM98.202 97.8239L99.2377 97.8763L99.1853 98.912L98.1496 98.8596L98.202 97.8239ZM98.1496 98.8596L99.1853 98.912L99.133 99.9477L98.0972 99.8953L98.1496 98.8596ZM96.0258 99.7906L97.0615 99.843L97.0092 100.879L95.9734 100.826L96.0258 99.7906ZM97.0615 99.843L98.0972 99.8953L98.0449 100.931L97.0092 100.879L97.0615 99.843ZM99.1853 98.912L100.221 98.9644L100.169 100L99.133 99.9477L99.1853 98.912ZM99.133 99.9477L100.169 100L100.116 101.036L99.0806 100.983L99.133 99.9477ZM98.0972 99.8953L99.133 99.9477L99.0806 100.983L98.0449 100.931L98.0972 99.8953ZM98.0449 100.931L99.0806 100.983L99.0282 102.019L97.9925 101.967L98.0449 100.931ZM97.0092 100.879L98.0449 100.931L97.9925 101.967L96.9568 101.914L97.0092 100.879ZM97.9925 101.967L99.0282 102.019L98.9758 103.055L97.9401 103.002L97.9925 101.967ZM99.0282 102.019L100.064 102.072L100.012 103.107L98.9758 103.055L99.0282 102.019ZM100.064 102.072L101.1 102.124L101.047 103.16L100.012 103.107L100.064 102.072ZM101.1 102.124L102.135 102.176L102.083 103.212L101.047 103.16L101.1 102.124ZM102.135 102.176L103.171 102.229L103.119 103.264L102.083 103.212L102.135 102.176ZM103.171 102.229L104.207 102.281L104.154 103.317L103.119 103.264L103.171 102.229ZM104.207 102.281L105.242 102.333L105.19 103.369L104.154 103.317L104.207 102.281ZM103.223 101.193L104.259 101.245L104.207 102.281L103.171 102.229L103.223 101.193ZM102.188 101.141L103.223 101.193L103.171 102.229L102.135 102.176L102.188 101.141ZM101.152 101.088L102.188 101.141L102.135 102.176L101.1 102.124L101.152 101.088ZM101.204 100.052L102.24 100.105L102.188 101.141L101.152 101.088L101.204 100.052ZM100.169 100L101.204 100.052L101.152 101.088L100.116 101.036L100.169 100ZM102.24 100.105L103.276 100.157L103.223 101.193L102.188 101.141L102.24 100.105ZM100.116 101.036L101.152 101.088L101.1 102.124L100.064 102.072L100.116 101.036ZM99.0806 100.983L100.116 101.036L100.064 102.072L99.0282 102.019L99.0806 100.983Z" fill="white"/>
</svg>
