<svg width="26" height="26" viewBox="0 0 26 26" fill="none" xmlns="http://www.w3.org/2000/svg">
<path d="M6.04576 3.91606L5.90012 21.9155C5.89922 22.0977 5.94804 22.2767 6.04132 22.4333C6.1346 22.5899 6.26881 22.718 6.4295 22.804C6.5902 22.8899 6.7713 22.9304 6.9533 22.9211C7.13531 22.9118 7.31133 22.853 7.46241 22.7511L20.5348 13.8566C21.0768 13.488 21.0841 12.59 20.5481 12.2117L7.62136 3.10678C7.47226 3.0014 7.29713 2.93889 7.11501 2.92605C6.93288 2.9132 6.75071 2.95052 6.5883 3.03394C6.42589 3.11736 6.28945 3.24369 6.1938 3.39921C6.09815 3.55473 6.04695 3.73349 6.04576 3.91606Z" fill="#789CF6"/>
</svg>
