<svg width="11" height="11" viewBox="0 0 11 11" fill="none" xmlns="http://www.w3.org/2000/svg">
<g clip-path="url(#clip0_32_181)">
<path fill-rule="evenodd" clip-rule="evenodd" d="M11 5.5C11 4.04131 10.4205 2.64236 9.38909 1.61091C8.35764 0.579463 6.95869 0 5.5 0C4.04131 0 2.64236 0.579463 1.61091 1.61091C0.579463 2.64236 0 4.04131 0 5.5C0 6.95869 0.579463 8.35764 1.61091 9.38909C2.64236 10.4205 4.04131 11 5.5 11C6.95869 11 8.35764 10.4205 9.38909 9.38909C10.4205 8.35764 11 6.95869 11 5.5ZM8.20286 3.89086C8.20286 4.33479 7.84379 4.69464 7.39986 4.69543H7.39829C7.18913 4.68921 6.99062 4.60183 6.84476 4.45179C6.69891 4.30176 6.61718 4.10085 6.61687 3.89161C6.61657 3.68236 6.69771 3.48122 6.84312 3.33075C6.98853 3.18029 7.1868 3.09233 7.39593 3.0855H7.39829C7.84221 3.0855 8.20286 3.44614 8.20286 3.89086ZM4.40707 3.89086C4.40707 4.33479 4.048 4.69464 3.60407 4.69543H3.60171C3.39257 4.6891 3.1941 4.60162 3.04832 4.45152C2.90255 4.30141 2.82092 4.10047 2.82071 3.89123C2.82051 3.68199 2.90175 3.48088 3.04723 3.33049C3.19271 3.1801 3.39101 3.09224 3.60014 3.0855H3.60171C4.04643 3.0855 4.40707 3.44614 4.40707 3.89086ZM3.29136 6.09714C3.27669 6.03267 3.24915 5.97182 3.21039 5.91825C3.17164 5.86468 3.12246 5.81948 3.06581 5.78538C3.00916 5.75127 2.94621 5.72896 2.88073 5.71978C2.81525 5.71059 2.74859 5.71473 2.68474 5.73193C2.6209 5.74914 2.56119 5.77906 2.50919 5.8199C2.45719 5.86074 2.41398 5.91167 2.38213 5.96962C2.35029 6.02757 2.33049 6.09135 2.3239 6.15715C2.31731 6.22294 2.32407 6.28939 2.34379 6.3525C2.53124 7.04656 2.94214 7.65953 3.51294 8.09662C4.08374 8.53371 4.78264 8.77057 5.50157 8.77057C6.2205 8.77057 6.91941 8.53371 7.49021 8.09662C8.06101 7.65953 8.4719 7.04656 8.65936 6.3525C8.67642 6.29014 8.681 6.22502 8.67284 6.16088C8.66467 6.09674 8.64392 6.03484 8.61178 5.97874C8.57963 5.92264 8.53673 5.87344 8.48552 5.83397C8.43431 5.79449 8.37581 5.76552 8.31338 5.7487C8.25095 5.73189 8.18581 5.72758 8.1217 5.736C8.0576 5.74443 7.99579 5.76543 7.93982 5.79781C7.88385 5.83018 7.83483 5.87329 7.79556 5.92466C7.75629 5.97602 7.72756 6.03464 7.711 6.09714C7.57971 6.58264 7.29217 7.01138 6.89281 7.31709C6.49345 7.62281 6.00451 7.78846 5.50157 7.78846C4.99863 7.78846 4.5097 7.62281 4.11034 7.31709C3.71098 7.01138 3.42264 6.58264 3.29136 6.09714Z" fill="#FDE562"/>
</g>
<defs>
<clipPath id="clip0_32_181">
<rect width="11" height="11" fill="white"/>
</clipPath>
</defs>
</svg>
