<svg width="14" height="14" viewBox="0 0 14 14" fill="none" xmlns="http://www.w3.org/2000/svg">
<path d="M5.17501 10.2857L5.17494 10.2856C4.15892 9.51748 2.97348 8.51067 2.04676 7.40923C1.10785 6.29332 0.5 5.15711 0.5 4.12146C0.5 2.25073 1.3734 1.07633 2.4902 0.668676C3.61613 0.257688 5.16938 0.560331 6.64709 2.03266L7 2.38428L7.35291 2.03266C8.83062 0.560331 10.3839 0.257688 11.5098 0.668676C12.6266 1.07633 13.5 2.25073 13.5 4.12146C13.5 5.15707 12.892 6.29327 11.953 7.40922C11.0262 8.5106 9.84086 9.51738 8.82518 10.2855C7.85663 11.0174 7.52892 11.2419 7 11.2419C6.47105 11.2419 6.1431 11.0179 5.17501 10.2857ZM9.125 5.16228V5.52565C9.125 5.79782 9.23464 6.05748 9.42759 6.24786C9.62031 6.43802 9.88029 6.54368 10.15 6.54368C10.4197 6.54368 10.6797 6.43802 10.8724 6.24786C11.0654 6.05747 11.175 5.79782 11.175 5.52565V5.16228H11.55C11.8197 5.16228 12.0797 5.05663 12.2724 4.86646C12.4654 4.67608 12.575 4.41643 12.575 4.14426C12.575 3.87209 12.4654 3.61243 12.2724 3.42205C12.0797 3.23189 11.8197 3.12623 11.55 3.12623H11.175V2.76286C11.175 2.49069 11.0654 2.23104 10.8724 2.04065C10.6797 1.85049 10.4197 1.74484 10.15 1.74484C9.8803 1.74484 9.62031 1.85049 9.42759 2.04065C9.23464 2.23104 9.125 2.49069 9.125 2.76286V3.12623H8.75C8.4803 3.12623 8.22031 3.23189 8.02759 3.42205C7.83464 3.61243 7.725 3.87208 7.725 4.14426C7.725 4.41643 7.83464 4.67608 8.02759 4.86646C8.22031 5.05663 8.4803 5.16228 8.75 5.16228H9.125Z" fill="#FF8787" stroke="white"/>
</svg>
