<svg width="11" height="14" viewBox="0 0 11 14" fill="none" xmlns="http://www.w3.org/2000/svg">
<path d="M9.8125 13.1V12.6V11.9006C9.81157 11.1351 9.61524 10.3835 9.24338 9.7196C8.87158 9.05578 8.33735 8.50281 7.69394 8.11407C7.3265 7.8926 7.0625 7.50724 7.0625 7.0553V6.9447C7.0625 6.49315 7.32612 6.10759 7.69339 5.88655C8.33652 5.49732 8.87053 4.94418 9.24236 4.28037C9.61426 3.61644 9.81092 2.86496 9.8125 2.0995C9.8125 2.09934 9.8125 2.09918 9.8125 2.09902L9.8125 1.4V0.9H10.3125H10.5V0.5H0.5V0.9H0.6875H1.1875V1.4V2.0995C1.18908 2.86496 1.38574 3.61644 1.75764 4.28037C2.12958 4.94438 2.66381 5.49765 3.30719 5.8869L3.04838 6.3147M9.8125 13.1L0.6875 2.1C0.689165 2.95048 0.907589 3.78595 1.32141 4.52472C1.73524 5.26349 2.33029 5.88026 3.04838 6.3147M9.8125 13.1H10.3125H10.5V13.5H10.3125H0.5V13.1H0.6875H1.1875V12.6V11.9005M9.8125 13.1L0.6875 12.1V11.9M3.04838 6.3147L3.30598 5.88617C3.67333 6.10699 3.9375 6.49193 3.9375 6.9447V7.0553C3.9375 7.50682 3.67392 7.89236 3.30669 8.11341M3.04838 6.3147C3.29175 6.461 3.4375 6.6962 3.4375 6.9447V7.0553C3.4375 7.3031 3.29175 7.539 3.04838 7.6853M3.30669 8.11341C3.30645 8.11355 3.30621 8.11369 3.30598 8.11383L3.04838 7.6853M3.30669 8.11341C3.30686 8.1133 3.30702 8.1132 3.30719 8.1131L3.04838 7.6853M3.30669 8.11341C2.66353 8.50264 2.12949 9.0558 1.75764 9.71963C1.38574 10.3836 1.18908 11.135 1.1875 11.9005M3.04838 7.6853C2.33029 8.11974 1.73524 8.73651 1.32141 9.47528C0.907589 10.214 0.689165 11.0495 0.6875 11.9M1.1875 11.9005V11.9H0.6875M1.1875 11.9005C1.1875 11.9007 1.1875 11.9008 1.1875 11.901L0.6875 11.9M7.25381 8.8914C7.71105 9.16846 8.0963 9.54877 8.38162 10H8.64394V10.5L8.18393 10.6959C8.15555 10.6293 8.12489 10.564 8.09203 10.5H2.90802C2.87513 10.564 2.84444 10.6294 2.81604 10.696L2.35606 10.5V10H2.61849C2.90397 9.54871 3.28943 9.16839 3.74687 8.8914H7.25381ZM7.25381 8.8914C6.58556 8.4896 6.1875 7.8029 6.1875 7.0553V7H5.6875H5.3125H4.8125L7.25381 8.8914ZM9.4375 1.4V0.9H8.9375H2.0625H1.5625V1.4L1.5625 2.1L1.5625 2.10052C1.5634 2.96415 1.83946 3.80512 2.35057 4.49707L2.50046 4.7H2.75275H8.24725H8.49954L8.64943 4.49707C9.16054 3.80512 9.43659 2.96415 9.4375 2.10052V2.1V1.4ZM3.48903 8.46301L3.4879 8.4637C2.77928 8.89277 2.22291 9.53709 1.89609 10.304L1.59947 11H2.35606H8.64394H9.40038L9.10394 10.3041C8.77733 9.53729 8.22125 8.89298 7.51293 8.46377L7.51146 8.46289C6.98616 8.14704 6.6875 7.61894 6.6875 7.0553V7V6.5H6.1875H4.8125H4.3125V7V7.0553C4.3125 7.61961 4.01385 8.14713 3.48903 8.46301Z" fill="#99624E" stroke="white"/>
</svg>
