<svg width="13" height="13" viewBox="0 0 13 13" fill="none" xmlns="http://www.w3.org/2000/svg">
<path d="M9.20825 1.80918C10.0317 2.28459 10.7155 2.96839 11.1909 3.79183C11.6663 4.61528 11.9166 5.54936 11.9166 6.50019C11.9166 7.45101 11.6663 8.38509 11.1909 9.20853C10.7154 10.032 10.0316 10.7158 9.20819 11.1912C8.38474 11.6666 7.45066 11.9168 6.49983 11.9168C5.549 11.9168 4.61493 11.6665 3.7915 11.1911C2.96806 10.7156 2.28428 10.0318 1.80889 9.20838C1.33349 8.38493 1.08323 7.45084 1.08325 6.50001L1.08596 6.32451C1.1163 5.38905 1.38851 4.47741 1.87606 3.67847C2.36361 2.87953 3.04986 2.22055 3.8679 1.76578C4.68595 1.31102 5.60787 1.07598 6.5438 1.08358C7.47972 1.09119 8.3977 1.34118 9.20825 1.80918ZM6.49992 3.25001C6.35626 3.25001 6.21848 3.30708 6.1169 3.40866C6.01532 3.51025 5.95825 3.64802 5.95825 3.79168C5.52727 3.79168 5.11395 3.96288 4.8092 4.26763C4.50446 4.57238 4.33325 4.9857 4.33325 5.41668C4.33325 5.84766 4.50446 6.26098 4.8092 6.56573C5.11395 6.87048 5.52727 7.04168 5.95825 7.04168V8.12501C5.86842 8.12999 5.77873 8.11295 5.69698 8.07538C5.61523 8.03781 5.54389 7.98084 5.48917 7.90943L5.45233 7.85472C5.37823 7.7352 5.26054 7.64919 5.12416 7.61488C4.98778 7.58056 4.8434 7.60063 4.72155 7.67084C4.5997 7.74105 4.50994 7.8559 4.47124 7.9911C4.43253 8.1263 4.44793 8.27125 4.51417 8.3953C4.65242 8.63508 4.84963 8.83557 5.08709 8.97776C5.32455 9.11996 5.5944 9.19914 5.87104 9.2078H5.95825C5.95814 9.34057 6.00679 9.46875 6.09496 9.56801C6.18313 9.66727 6.30469 9.73069 6.43654 9.74622L6.49992 9.75001C6.64358 9.75001 6.78135 9.69295 6.88293 9.59136C6.98452 9.48978 7.04158 9.35201 7.04158 9.20835L7.13692 9.20564C7.5592 9.18123 7.95533 8.99312 8.24113 8.68129C8.52692 8.36945 8.67986 7.95847 8.66745 7.53566C8.65504 7.11285 8.47825 6.71155 8.17465 6.41701C7.87105 6.12248 7.46458 5.95794 7.04158 5.95835V4.87501C7.2355 4.86851 7.40504 4.95085 7.51067 5.0906L7.5475 5.1453C7.62161 5.26482 7.7393 5.35083 7.87568 5.38515C8.01206 5.41947 8.15643 5.39939 8.27828 5.32918C8.40013 5.25897 8.4899 5.14412 8.5286 5.00893C8.5673 4.87373 8.55191 4.72877 8.48567 4.60472C8.34748 4.36484 8.1503 4.16425 7.91284 4.02196C7.67537 3.87967 7.40549 3.8004 7.12879 3.79168H7.04158C7.04158 3.64802 6.98452 3.51025 6.88293 3.40866C6.78135 3.30708 6.64358 3.25001 6.49992 3.25001ZM7.04158 7.04168C7.18524 7.04168 7.32302 7.09875 7.4246 7.20033C7.52618 7.30191 7.58325 7.43969 7.58325 7.58335C7.58325 7.72701 7.52618 7.86478 7.4246 7.96636C7.32302 8.06794 7.18524 8.12501 7.04158 8.12501V7.04168ZM5.95825 4.87501V5.95835C5.81459 5.95835 5.67682 5.90128 5.57524 5.7997C5.47365 5.69811 5.41658 5.56034 5.41658 5.41668C5.41658 5.27302 5.47365 5.13525 5.57524 5.03366C5.67682 4.93208 5.81459 4.87501 5.95825 4.87501Z" fill="#72B26C"/>
</svg>
