<svg width="13" height="13" viewBox="0 0 13 13" fill="none" xmlns="http://www.w3.org/2000/svg">
<path d="M9.20825 1.80916C10.0317 2.28458 10.7155 2.96837 11.1909 3.79182C11.6663 4.61526 11.9166 5.54934 11.9166 6.50017C11.9166 7.451 11.6663 8.38508 11.1909 9.20851C10.7154 10.032 10.0316 10.7157 9.20819 11.1911C8.38474 11.6665 7.45066 11.9168 6.49983 11.9168C5.549 11.9168 4.61493 11.6665 3.7915 11.1911C2.96806 10.7156 2.28428 10.0318 1.80889 9.20836C1.33349 8.38491 1.08323 7.45083 1.08325 6.5L1.08596 6.3245C1.1163 5.38903 1.38851 4.47739 1.87606 3.67845C2.36361 2.87951 3.04986 2.22053 3.8679 1.76577C4.68595 1.311 5.60787 1.07596 6.5438 1.08357C7.47972 1.09117 8.3977 1.34116 9.20825 1.80916ZM6.49992 3.25C6.35626 3.25 6.21848 3.30707 6.1169 3.40865C6.01532 3.51023 5.95825 3.64801 5.95825 3.79166C5.52727 3.79166 5.11395 3.96287 4.8092 4.26762C4.50446 4.57236 4.33325 4.98569 4.33325 5.41666C4.33325 5.84764 4.50446 6.26097 4.8092 6.56571C5.11395 6.87046 5.52727 7.04166 5.95825 7.04166V8.125C5.86842 8.12997 5.77873 8.11293 5.69698 8.07536C5.61523 8.03779 5.54389 7.98083 5.48917 7.90941L5.45233 7.85471C5.37823 7.73519 5.26054 7.64918 5.12416 7.61486C4.98778 7.58055 4.8434 7.60062 4.72155 7.67083C4.5997 7.74104 4.50994 7.85589 4.47124 7.99109C4.43253 8.12629 4.44793 8.27124 4.51417 8.39529C4.65242 8.63507 4.84963 8.83556 5.08709 8.97775C5.32455 9.11994 5.5944 9.19912 5.87104 9.20779H5.95825C5.95814 9.34056 6.00679 9.46874 6.09496 9.568C6.18313 9.66725 6.30469 9.73067 6.43654 9.74621L6.49992 9.75C6.64358 9.75 6.78135 9.69293 6.88293 9.59135C6.98452 9.48977 7.04158 9.35199 7.04158 9.20833L7.13692 9.20562C7.5592 9.18122 7.95533 8.99311 8.24113 8.68127C8.52692 8.36944 8.67986 7.95845 8.66745 7.53564C8.65504 7.11284 8.47825 6.71153 8.17465 6.417C7.87105 6.12247 7.46458 5.95792 7.04158 5.95833V4.875C7.2355 4.8685 7.40504 4.95083 7.51067 5.09058L7.5475 5.14529C7.62161 5.26481 7.7393 5.35082 7.87568 5.38513C8.01206 5.41945 8.15643 5.39938 8.27828 5.32917C8.40013 5.25896 8.4899 5.14411 8.5286 5.00891C8.5673 4.87371 8.55191 4.72876 8.48567 4.60471C8.34748 4.36483 8.1503 4.16423 7.91284 4.02194C7.67537 3.87965 7.40549 3.80039 7.12879 3.79166H7.04158C7.04158 3.64801 6.98452 3.51023 6.88293 3.40865C6.78135 3.30707 6.64358 3.25 6.49992 3.25ZM7.04158 7.04166C7.18524 7.04166 7.32302 7.09873 7.4246 7.20031C7.52618 7.3019 7.58325 7.43967 7.58325 7.58333C7.58325 7.72699 7.52618 7.86477 7.4246 7.96635C7.32302 8.06793 7.18524 8.125 7.04158 8.125V7.04166ZM5.95825 4.875V5.95833C5.81459 5.95833 5.67682 5.90126 5.57524 5.79968C5.47365 5.6981 5.41658 5.56032 5.41658 5.41666C5.41658 5.27301 5.47365 5.13523 5.57524 5.03365C5.67682 4.93207 5.81459 4.875 5.95825 4.875Z" fill="#474848"/>
</svg>
