<svg width="17" height="14" viewBox="0 0 17 14" fill="none" xmlns="http://www.w3.org/2000/svg">
<path d="M8.59031 2.32969L6.01906 4.47344C5.59141 4.82891 5.50906 5.46875 5.83313 5.92539C6.17578 6.41211 6.8425 6.50781 7.30203 6.13867L9.93969 4.02773C10.1256 3.88008 10.3913 3.91289 10.5373 4.1043C10.6834 4.2957 10.6489 4.56914 10.463 4.71953L9.90781 5.1625L13.6 8.6625V3.5H13.5814L13.4778 3.43164L11.5494 2.16016C11.143 1.89219 10.6675 1.75 10.1841 1.75C9.605 1.75 9.04187 1.95508 8.59031 2.32969ZM9.19594 5.73125L7.82266 6.83047C6.98594 7.50313 5.77203 7.32812 5.14516 6.44219C4.55547 5.6082 4.70422 4.44336 5.4825 3.79531L7.6925 1.95508C7.38438 1.82109 7.05234 1.75273 6.715 1.75273C6.21563 1.75 5.72953 1.90313 5.3125 2.1875L3.4 3.5V9.625H4.14906L6.57688 11.9055C7.0975 12.3949 7.90234 12.3566 8.37781 11.8207C8.52391 11.6539 8.62219 11.4598 8.67266 11.2574L9.12422 11.684C9.64219 12.1734 10.4497 12.1379 10.9252 11.6047C11.0447 11.4707 11.1323 11.3148 11.1881 11.1535C11.7034 11.509 12.4047 11.4352 12.8377 10.9484C13.3131 10.4152 13.2786 9.58398 12.7606 9.09453L9.19594 5.73125ZM0.425 3.5C0.19125 3.5 0 3.69687 0 3.9375V9.625C0 10.109 0.379844 10.5 0.85 10.5H1.7C2.17016 10.5 2.55 10.109 2.55 9.625V3.5H0.425ZM1.275 8.75C1.38772 8.75 1.49582 8.79609 1.57552 8.87814C1.65522 8.96019 1.7 9.07147 1.7 9.1875C1.7 9.30353 1.65522 9.41481 1.57552 9.49686C1.49582 9.57891 1.38772 9.625 1.275 9.625C1.16228 9.625 1.05418 9.57891 0.97448 9.49686C0.894777 9.41481 0.85 9.30353 0.85 9.1875C0.85 9.07147 0.894777 8.96019 0.97448 8.87814C1.05418 8.79609 1.16228 8.75 1.275 8.75ZM14.45 3.5V9.625C14.45 10.109 14.8298 10.5 15.3 10.5H16.15C16.6202 10.5 17 10.109 17 9.625V3.9375C17 3.69687 16.8088 3.5 16.575 3.5H14.45ZM15.3 9.1875C15.3 9.07147 15.3448 8.96019 15.4245 8.87814C15.5042 8.79609 15.6123 8.75 15.725 8.75C15.8377 8.75 15.9458 8.79609 16.0255 8.87814C16.1052 8.96019 16.15 9.07147 16.15 9.1875C16.15 9.30353 16.1052 9.41481 16.0255 9.49686C15.9458 9.57891 15.8377 9.625 15.725 9.625C15.6123 9.625 15.5042 9.57891 15.4245 9.49686C15.3448 9.41481 15.3 9.30353 15.3 9.1875Z" fill="#36BBF8"/>
</svg>
